SplineFontDB: 3.2
FontName: Untitled1
FullName: Untitled1
FamilyName: Untitled1
Weight: Regular
Copyright: Copyright (c) 2025, Bastien
UComments: "2025-5-29: Created with FontForge (http://fontforge.org)"
Version: 001.000
ItalicAngle: 0
UnderlinePosition: -100
UnderlineWidth: 50
Ascent: 800
Descent: 200
InvalidEm: 0
LayerCount: 2
Layer: 0 0 "Arri+AOgA-re" 1
Layer: 1 0 "Avant" 0
XUID: [1021 471 -1080680241 500884]
OS2Version: 0
OS2_WeightWidthSlopeOnly: 0
OS2_UseTypoMetrics: 1
CreationTime: 1748469966
ModificationTime: 1748469966
OS2TypoAscent: 0
OS2TypoAOffset: 1
OS2TypoDescent: 0
OS2TypoDOffset: 1
OS2TypoLinegap: 0
OS2WinAscent: 0
OS2WinAOffset: 1
OS2WinDescent: 0
OS2WinDOffset: 1
HheadAscent: 0
HheadAOffset: 1
HheadDescent: 0
HheadDOffset: 1
OS2Vendor: 'PfEd'
DEI: 91125
Encoding: ISO8859-1
UnicodeInterp: none
NameList: AGL For New Fonts
DisplaySize: -48
AntiAlias: 1
FitToEm: 0
BeginChars: 256 48

StartChar: A
Encoding: 65 65 0
Width: 605
Flags: HW
LayerCount: 2
Fore
SplineSet
302.404296875 702.241210938 m 1
 341.424804688 702.241210938 l 1
 583.349609375 19.3916015625 l 1
 505.309570312 19.3916015625 l 1
 307.282226562 624.201171875 l 1
 302.404296875 663.221679688 l 1
 302.404296875 702.241210938 l 1
263.384765625 702.241210938 m 1
 302.404296875 702.241210938 l 1
 302.404296875 663.221679688 l 1
 297.52734375 624.201171875 l 1
 99.5 19.3916015625 l 1
 21.4599609375 19.3916015625 l 1
 263.384765625 702.241210938 l 1
133.05859375 255.46484375 m 1
 471.750976562 255.46484375 l 1
 471.750976562 193.033203125 l 1
 133.05859375 193.033203125 l 1
 133.05859375 255.46484375 l 1
-0.5439453125 19.935546875 m 1
 -0.5439453125 18.84765625 l 1
 605.352539062 18.84765625 l 1
 605.352539062 19.935546875 l 1
 -0.5439453125 19.935546875 l 1
-0.5439453125 800.336914062 m 1
 -0.5439453125 799.249023438 l 1
 605.352539062 799.249023438 l 1
 605.352539062 800.336914062 l 1
 -0.5439453125 800.336914062 l 1
-0.5439453125 -198.577148438 m 1
 -0.5439453125 -199.665039062 l 1
 605.352539062 -199.665039062 l 1
 605.352539062 -198.577148438 l 1
 -0.5439453125 -198.577148438 l 1
-0.5439453125 -199.665039062 m 1
 0.5439453125 -199.665039062 l 1
 0.5439453125 800.336914062 l 1
 -0.5439453125 800.336914062 l 1
 -0.5439453125 -199.665039062 l 1
604.264648438 -199.665039062 m 1
 605.352539062 -199.665039062 l 1
 605.352539062 800.336914062 l 1
 604.264648438 800.336914062 l 1
 604.264648438 -199.665039062 l 1
EndSplineSet
EndChar

StartChar: B
Encoding: 66 66 1
Width: 596
Flags: HW
LayerCount: 2
Fore
SplineSet
78.0400390625 639.809570312 m 1
 78.0400390625 702.241210938 l 1
 318.356445312 702.241210938 l 2
 438.90234375 702.241210938 526.969726562 646.720703125 526.969726562 534.458984375 c 0
 526.969726562 423.934570312 438.084960938 371.661132812 318.356445312 371.661132812 c 1
 318.356445312 413.491210938 l 1
 396.615234375 413.491210938 448.9296875 458.206054688 448.9296875 534.458984375 c 0
 448.9296875 604.842773438 393.862304688 639.809570312 318.356445312 639.809570312 c 2
 78.0400390625 639.809570312 l 1
78.0400390625 413.491210938 m 1
 318.356445312 413.491210938 l 1
 318.356445312 351.05859375 l 1
 78.0400390625 351.05859375 l 1
 78.0400390625 413.491210938 l 1
318.356445312 351.05859375 m 1
 318.356445312 392.888671875 l 1
 453.944335938 392.888671875 556.724609375 338.217773438 556.724609375 214.4921875 c 0
 556.724609375 85.0107421875 456.66015625 19.3916015625 318.356445312 19.3916015625 c 2
 117.060546875 19.3916015625 l 1
 117.060546875 81.82421875 l 1
 318.356445312 81.82421875 l 2
 411.623046875 81.82421875 478.684570312 126.881835938 478.684570312 214.4921875 c 0
 478.684570312 303.533203125 412.291992188 351.05859375 318.356445312 351.05859375 c 1
78.0400390625 702.241210938 m 1
 156.080078125 702.241210938 l 1
 156.080078125 19.3916015625 l 1
 78.0400390625 19.3916015625 l 1
 78.0400390625 702.241210938 l 1
-0.5439453125 19.935546875 m 1
 -0.5439453125 18.84765625 l 1
 595.599609375 18.84765625 l 1
 595.599609375 19.935546875 l 1
 -0.5439453125 19.935546875 l 1
-0.5439453125 800.336914062 m 1
 -0.5439453125 799.249023438 l 1
 595.599609375 799.249023438 l 1
 595.599609375 800.336914062 l 1
 -0.5439453125 800.336914062 l 1
-0.5439453125 -198.577148438 m 1
 -0.5439453125 -199.665039062 l 1
 595.599609375 -199.665039062 l 1
 595.599609375 -198.577148438 l 1
 -0.5439453125 -198.577148438 l 1
-0.5439453125 -199.665039062 m 1
 0.5439453125 -199.665039062 l 1
 0.5439453125 800.336914062 l 1
 -0.5439453125 800.336914062 l 1
 -0.5439453125 -199.665039062 l 1
594.51171875 -199.665039062 m 1
 595.599609375 -199.665039062 l 1
 595.599609375 800.336914062 l 1
 594.51171875 800.336914062 l 1
 594.51171875 -199.665039062 l 1
EndSplineSet
EndChar

StartChar: C
Encoding: 67 67 2
Width: 591
Flags: HW
LayerCount: 2
Fore
SplineSet
522.896484375 568.723632812 m 1
 476.3125 619.022460938 410.861328125 647.614257812 342.303710938 647.614257812 c 0
 195.064453125 647.614257812 132.66796875 523.16796875 132.66796875 360.81640625 c 0
 132.66796875 201.989257812 197.216796875 81.82421875 342.303710938 81.82421875 c 0
 410.58984375 81.82421875 475.879882812 109.865234375 522.896484375 159.387695312 c 1
 563.02734375 111.5625 l 1
 504.72265625 52.5830078125 425.23828125 19.3916015625 342.303710938 19.3916015625 c 0
 153.850585938 19.3916015625 54.6279296875 161.321289062 54.6279296875 360.81640625 c 0
 54.6279296875 563.751953125 151.94140625 710.045898438 342.303710938 710.045898438 c 0
 425.501953125 710.045898438 505.14453125 676.309570312 563.02734375 616.548828125 c 1
 522.896484375 568.723632812 l 1
-0.5439453125 19.935546875 m 1
 -0.5439453125 18.84765625 l 1
 590.72265625 18.84765625 l 1
 590.72265625 19.935546875 l 1
 -0.5439453125 19.935546875 l 1
-0.5439453125 800.336914062 m 1
 -0.5439453125 799.249023438 l 1
 590.72265625 799.249023438 l 1
 590.72265625 800.336914062 l 1
 -0.5439453125 800.336914062 l 1
-0.5439453125 -198.577148438 m 1
 -0.5439453125 -199.665039062 l 1
 590.72265625 -199.665039062 l 1
 590.72265625 -198.577148438 l 1
 -0.5439453125 -198.577148438 l 1
-0.5439453125 -199.665039062 m 1
 0.5439453125 -199.665039062 l 1
 0.5439453125 800.336914062 l 1
 -0.5439453125 800.336914062 l 1
 -0.5439453125 -199.665039062 l 1
589.634765625 -199.665039062 m 1
 590.72265625 -199.665039062 l 1
 590.72265625 800.336914062 l 1
 589.634765625 800.336914062 l 1
 589.634765625 -199.665039062 l 1
EndSplineSet
EndChar

StartChar: D
Encoding: 68 68 3
Width: 605
Flags: HW
LayerCount: 2
Fore
SplineSet
78.0400390625 639.809570312 m 1
 78.0400390625 702.241210938 l 1
 272.162109375 702.241210938 l 2
 454.703125 702.241210938 550.181640625 564.119140625 550.181640625 370.569335938 c 0
 550.181640625 168.373046875 459.58984375 19.3916015625 272.162109375 19.3916015625 c 2
 78.0400390625 19.3916015625 l 1
 78.0400390625 81.82421875 l 1
 272.162109375 81.82421875 l 2
 416.969726562 81.82421875 472.141601562 208.814453125 472.141601562 370.569335938 c 0
 472.141601562 523.478515625 411.4140625 639.809570312 272.162109375 639.809570312 c 2
 78.0400390625 639.809570312 l 1
78.0400390625 702.241210938 m 1
 156.080078125 702.241210938 l 1
 156.080078125 19.3916015625 l 1
 78.0400390625 19.3916015625 l 1
 78.0400390625 702.241210938 l 1
-0.5439453125 19.935546875 m 1
 -0.5439453125 18.84765625 l 1
 605.352539062 18.84765625 l 1
 605.352539062 19.935546875 l 1
 -0.5439453125 19.935546875 l 1
-0.5439453125 800.336914062 m 1
 -0.5439453125 799.249023438 l 1
 605.352539062 799.249023438 l 1
 605.352539062 800.336914062 l 1
 -0.5439453125 800.336914062 l 1
-0.5439453125 -198.577148438 m 1
 -0.5439453125 -199.665039062 l 1
 605.352539062 -199.665039062 l 1
 605.352539062 -198.577148438 l 1
 -0.5439453125 -198.577148438 l 1
-0.5439453125 -199.665039062 m 1
 0.5439453125 -199.665039062 l 1
 0.5439453125 800.336914062 l 1
 -0.5439453125 800.336914062 l 1
 -0.5439453125 -199.665039062 l 1
604.264648438 -199.665039062 m 1
 605.352539062 -199.665039062 l 1
 605.352539062 800.336914062 l 1
 604.264648438 800.336914062 l 1
 604.264648438 -199.665039062 l 1
EndSplineSet
EndChar

StartChar: E
Encoding: 69 69 4
Width: 537
Flags: HW
LayerCount: 2
Fore
SplineSet
78.0400390625 702.241210938 m 1
 156.080078125 702.241210938 l 1
 156.080078125 19.3916015625 l 1
 78.0400390625 19.3916015625 l 1
 78.0400390625 702.241210938 l 1
117.060546875 639.809570312 m 1
 117.060546875 702.241210938 l 1
 482.869140625 702.241210938 l 1
 482.869140625 639.809570312 l 1
 117.060546875 639.809570312 l 1
117.060546875 329.600585938 m 1
 117.060546875 392.033203125 l 1
 429.212890625 392.033203125 l 1
 429.212890625 329.600585938 l 1
 117.060546875 329.600585938 l 1
117.060546875 19.3916015625 m 1
 117.060546875 81.82421875 l 1
 509.697265625 81.82421875 l 1
 509.697265625 19.3916015625 l 1
 117.060546875 19.3916015625 l 1
-0.5439453125 19.935546875 m 1
 -0.5439453125 18.84765625 l 1
 537.068359375 18.84765625 l 1
 537.068359375 19.935546875 l 1
 -0.5439453125 19.935546875 l 1
-0.5439453125 800.336914062 m 1
 -0.5439453125 799.249023438 l 1
 537.068359375 799.249023438 l 1
 537.068359375 800.336914062 l 1
 -0.5439453125 800.336914062 l 1
-0.5439453125 -198.577148438 m 1
 -0.5439453125 -199.665039062 l 1
 537.068359375 -199.665039062 l 1
 537.068359375 -198.577148438 l 1
 -0.5439453125 -198.577148438 l 1
-0.5439453125 -199.665039062 m 1
 0.5439453125 -199.665039062 l 1
 0.5439453125 800.336914062 l 1
 -0.5439453125 800.336914062 l 1
 -0.5439453125 -199.665039062 l 1
535.98046875 -199.665039062 m 1
 537.068359375 -199.665039062 l 1
 537.068359375 800.336914062 l 1
 535.98046875 800.336914062 l 1
 535.98046875 -199.665039062 l 1
EndSplineSet
EndChar

StartChar: F
Encoding: 70 70 5
Width: 532
Flags: HW
LayerCount: 2
Fore
SplineSet
78.0400390625 702.241210938 m 1
 156.080078125 702.241210938 l 1
 156.080078125 19.3916015625 l 1
 78.0400390625 19.3916015625 l 1
 78.0400390625 702.241210938 l 1
117.060546875 639.809570312 m 1
 117.060546875 702.241210938 l 1
 478.479492188 702.241210938 l 1
 478.479492188 639.809570312 l 1
 117.060546875 639.809570312 l 1
117.060546875 329.600585938 m 1
 117.060546875 392.033203125 l 1
 425.311523438 392.033203125 l 1
 425.311523438 329.600585938 l 1
 117.060546875 329.600585938 l 1
-0.5439453125 19.935546875 m 1
 -0.5439453125 18.84765625 l 1
 532.189453125 18.84765625 l 1
 532.189453125 19.935546875 l 1
 -0.5439453125 19.935546875 l 1
-0.5439453125 800.336914062 m 1
 -0.5439453125 799.249023438 l 1
 532.189453125 799.249023438 l 1
 532.189453125 800.336914062 l 1
 -0.5439453125 800.336914062 l 1
-0.5439453125 -198.577148438 m 1
 -0.5439453125 -199.665039062 l 1
 532.189453125 -199.665039062 l 1
 532.189453125 -198.577148438 l 1
 -0.5439453125 -198.577148438 l 1
-0.5439453125 -199.665039062 m 1
 0.5439453125 -199.665039062 l 1
 0.5439453125 800.336914062 l 1
 -0.5439453125 800.336914062 l 1
 -0.5439453125 -199.665039062 l 1
531.1015625 -199.665039062 m 1
 532.189453125 -199.665039062 l 1
 532.189453125 800.336914062 l 1
 531.1015625 800.336914062 l 1
 531.1015625 -199.665039062 l 1
EndSplineSet
EndChar

StartChar: G
Encoding: 71 71 6
Width: 635
Flags: HW
LayerCount: 2
Fore
SplineSet
539.31640625 570.049804688 m 1
 488.344726562 619.778320312 419.954101562 647.614257812 348.743164062 647.614257812 c 0
 199.407226562 647.614257812 132.66796875 524.177734375 132.66796875 360.81640625 c 0
 132.66796875 200.961914062 201.495117188 81.82421875 348.743164062 81.82421875 c 0
 426.422851562 81.82421875 503.83984375 90.826171875 579.447265625 108.649414062 c 1
 579.447265625 46.2177734375 l 1
 503.83984375 28.3935546875 426.422851562 19.3916015625 348.743164062 19.3916015625 c 0
 157.8984375 19.3916015625 54.6279296875 160.205078125 54.6279296875 360.81640625 c 0
 54.6279296875 564.848632812 156.032226562 710.045898438 348.743164062 710.045898438 c 0
 434.619140625 710.045898438 517.211914062 677.048828125 579.447265625 617.875 c 1
 539.31640625 570.049804688 l 1
501.40625 46.2177734375 m 1
 501.40625 360.81640625 l 1
 579.447265625 360.81640625 l 1
 579.447265625 46.2177734375 l 1
 501.40625 46.2177734375 l 1
579.447265625 392.033203125 m 1
 579.447265625 329.600585938 l 1
 317.037109375 329.600585938 l 1
 317.037109375 392.033203125 l 1
 579.447265625 392.033203125 l 1
-0.5439453125 19.935546875 m 1
 -0.5439453125 18.84765625 l 1
 634.618164062 18.84765625 l 1
 634.618164062 19.935546875 l 1
 -0.5439453125 19.935546875 l 1
-0.5439453125 800.336914062 m 1
 -0.5439453125 799.249023438 l 1
 634.618164062 799.249023438 l 1
 634.618164062 800.336914062 l 1
 -0.5439453125 800.336914062 l 1
-0.5439453125 -198.577148438 m 1
 -0.5439453125 -199.665039062 l 1
 634.618164062 -199.665039062 l 1
 634.618164062 -198.577148438 l 1
 -0.5439453125 -198.577148438 l 1
-0.5439453125 -199.665039062 m 1
 0.5439453125 -199.665039062 l 1
 0.5439453125 800.336914062 l 1
 -0.5439453125 800.336914062 l 1
 -0.5439453125 -199.665039062 l 1
633.530273438 -199.665039062 m 1
 634.618164062 -199.665039062 l 1
 634.618164062 800.336914062 l 1
 633.530273438 800.336914062 l 1
 633.530273438 -199.665039062 l 1
EndSplineSet
EndChar

StartChar: H
Encoding: 72 72 7
Width: 596
Flags: HW
LayerCount: 2
Fore
SplineSet
78.0400390625 702.241210938 m 1
 156.080078125 702.241210938 l 1
 156.080078125 19.3916015625 l 1
 78.0400390625 19.3916015625 l 1
 78.0400390625 702.241210938 l 1
438.974609375 19.3916015625 m 1
 438.974609375 702.241210938 l 1
 517.014648438 702.241210938 l 1
 517.014648438 19.3916015625 l 1
 438.974609375 19.3916015625 l 1
117.060546875 363.745117188 m 1
 117.060546875 426.177734375 l 1
 477.995117188 426.177734375 l 1
 477.995117188 363.745117188 l 1
 117.060546875 363.745117188 l 1
-0.5439453125 19.935546875 m 1
 -0.5439453125 18.84765625 l 1
 595.599609375 18.84765625 l 1
 595.599609375 19.935546875 l 1
 -0.5439453125 19.935546875 l 1
-0.5439453125 800.336914062 m 1
 -0.5439453125 799.249023438 l 1
 595.599609375 799.249023438 l 1
 595.599609375 800.336914062 l 1
 -0.5439453125 800.336914062 l 1
-0.5439453125 -198.577148438 m 1
 -0.5439453125 -199.665039062 l 1
 595.599609375 -199.665039062 l 1
 595.599609375 -198.577148438 l 1
 -0.5439453125 -198.577148438 l 1
-0.5439453125 -199.665039062 m 1
 0.5439453125 -199.665039062 l 1
 0.5439453125 800.336914062 l 1
 -0.5439453125 800.336914062 l 1
 -0.5439453125 -199.665039062 l 1
594.51171875 -199.665039062 m 1
 595.599609375 -199.665039062 l 1
 595.599609375 800.336914062 l 1
 594.51171875 800.336914062 l 1
 594.51171875 -199.665039062 l 1
EndSplineSet
EndChar

StartChar: I
Encoding: 73 73 8
Width: 225
Flags: HW
LayerCount: 2
Fore
SplineSet
73.162109375 702.241210938 m 1
 151.203125 702.241210938 l 1
 151.203125 19.3916015625 l 1
 73.162109375 19.3916015625 l 1
 73.162109375 702.241210938 l 1
-0.5439453125 19.935546875 m 1
 -0.5439453125 18.84765625 l 1
 224.908203125 18.84765625 l 1
 224.908203125 19.935546875 l 1
 -0.5439453125 19.935546875 l 1
-0.5439453125 800.336914062 m 1
 -0.5439453125 799.249023438 l 1
 224.908203125 799.249023438 l 1
 224.908203125 800.336914062 l 1
 -0.5439453125 800.336914062 l 1
-0.5439453125 -198.577148438 m 1
 -0.5439453125 -199.665039062 l 1
 224.908203125 -199.665039062 l 1
 224.908203125 -198.577148438 l 1
 -0.5439453125 -198.577148438 l 1
-0.5439453125 -199.665039062 m 1
 0.5439453125 -199.665039062 l 1
 0.5439453125 800.336914062 l 1
 -0.5439453125 800.336914062 l 1
 -0.5439453125 -199.665039062 l 1
223.8203125 -199.665039062 m 1
 224.908203125 -199.665039062 l 1
 224.908203125 800.336914062 l 1
 223.8203125 800.336914062 l 1
 223.8203125 -199.665039062 l 1
EndSplineSet
EndChar

StartChar: J
Encoding: 74 74 9
Width: 469
Flags: HW
LayerCount: 2
Fore
SplineSet
312.159179688 702.241210938 m 1
 390.200195312 702.241210938 l 1
 390.200195312 224.249023438 l 2
 390.200195312 97.00390625 318.060546875 11.587890625 194.31640625 11.587890625 c 0
 114.466796875 11.587890625 60.4736328125 46.0029296875 26.76171875 118.387695312 c 1
 66.892578125 166.212890625 l 1
 87.0234375 105.08203125 129.95703125 74.01953125 194.31640625 74.01953125 c 0
 274.1171875 74.01953125 312.159179688 137.9296875 312.159179688 224.249023438 c 2
 312.159179688 702.241210938 l 1
-0.5439453125 19.935546875 m 1
 -0.5439453125 18.84765625 l 1
 468.784179688 18.84765625 l 1
 468.784179688 19.935546875 l 1
 -0.5439453125 19.935546875 l 1
-0.5439453125 800.336914062 m 1
 -0.5439453125 799.249023438 l 1
 468.784179688 799.249023438 l 1
 468.784179688 800.336914062 l 1
 -0.5439453125 800.336914062 l 1
-0.5439453125 -198.577148438 m 1
 -0.5439453125 -199.665039062 l 1
 468.784179688 -199.665039062 l 1
 468.784179688 -198.577148438 l 1
 -0.5439453125 -198.577148438 l 1
-0.5439453125 -199.665039062 m 1
 0.5439453125 -199.665039062 l 1
 0.5439453125 800.336914062 l 1
 -0.5439453125 800.336914062 l 1
 -0.5439453125 -199.665039062 l 1
467.696289062 -199.665039062 m 1
 468.784179688 -199.665039062 l 1
 468.784179688 800.336914062 l 1
 467.696289062 800.336914062 l 1
 467.696289062 -199.665039062 l 1
EndSplineSet
EndChar

StartChar: K
Encoding: 75 75 10
Width: 566
Flags: HW
LayerCount: 2
Fore
SplineSet
78.0400390625 702.241210938 m 1
 156.080078125 702.241210938 l 1
 156.080078125 19.3916015625 l 1
 78.0400390625 19.3916015625 l 1
 78.0400390625 702.241210938 l 1
441.905273438 702.241210938 m 1
 519.9453125 702.241210938 l 1
 234.12109375 360.81640625 l 1
 519.9453125 19.3916015625 l 1
 441.905273438 19.3916015625 l 1
 156.080078125 360.81640625 l 1
 441.905273438 702.241210938 l 1
-0.5439453125 19.935546875 m 1
 -0.5439453125 18.84765625 l 1
 566.333984375 18.84765625 l 1
 566.333984375 19.935546875 l 1
 -0.5439453125 19.935546875 l 1
-0.5439453125 800.336914062 m 1
 -0.5439453125 799.249023438 l 1
 566.333984375 799.249023438 l 1
 566.333984375 800.336914062 l 1
 -0.5439453125 800.336914062 l 1
-0.5439453125 -198.577148438 m 1
 -0.5439453125 -199.665039062 l 1
 566.333984375 -199.665039062 l 1
 566.333984375 -198.577148438 l 1
 -0.5439453125 -198.577148438 l 1
-0.5439453125 -199.665039062 m 1
 0.5439453125 -199.665039062 l 1
 0.5439453125 800.336914062 l 1
 -0.5439453125 800.336914062 l 1
 -0.5439453125 -199.665039062 l 1
565.24609375 -199.665039062 m 1
 566.333984375 -199.665039062 l 1
 566.333984375 800.336914062 l 1
 565.24609375 800.336914062 l 1
 565.24609375 -199.665039062 l 1
EndSplineSet
EndChar

StartChar: L
Encoding: 76 76 11
Width: 508
Flags: HW
LayerCount: 2
Fore
SplineSet
78.0400390625 702.241210938 m 1
 156.080078125 702.241210938 l 1
 156.080078125 19.3916015625 l 1
 78.0400390625 19.3916015625 l 1
 78.0400390625 702.241210938 l 1
117.060546875 19.3916015625 m 1
 117.060546875 81.82421875 l 1
 466.677734375 81.82421875 l 1
 466.677734375 19.3916015625 l 1
 117.060546875 19.3916015625 l 1
-0.5439453125 19.935546875 m 1
 -0.5439453125 18.84765625 l 1
 507.803710938 18.84765625 l 1
 507.803710938 19.935546875 l 1
 -0.5439453125 19.935546875 l 1
-0.5439453125 800.336914062 m 1
 -0.5439453125 799.249023438 l 1
 507.803710938 799.249023438 l 1
 507.803710938 800.336914062 l 1
 -0.5439453125 800.336914062 l 1
-0.5439453125 -198.577148438 m 1
 -0.5439453125 -199.665039062 l 1
 507.803710938 -199.665039062 l 1
 507.803710938 -198.577148438 l 1
 -0.5439453125 -198.577148438 l 1
-0.5439453125 -199.665039062 m 1
 0.5439453125 -199.665039062 l 1
 0.5439453125 800.336914062 l 1
 -0.5439453125 800.336914062 l 1
 -0.5439453125 -199.665039062 l 1
506.71484375 -199.665039062 m 1
 507.803710938 -199.665039062 l 1
 507.803710938 800.336914062 l 1
 506.71484375 800.336914062 l 1
 506.71484375 -199.665039062 l 1
EndSplineSet
EndChar

StartChar: M
Encoding: 77 77 12
Width: 732
Flags: HW
LayerCount: 2
Fore
SplineSet
78.0400390625 702.241210938 m 1
 156.080078125 702.241210938 l 1
 156.080078125 19.3916015625 l 1
 78.0400390625 19.3916015625 l 1
 78.0400390625 702.241210938 l 1
575.543945312 702.241210938 m 1
 653.583984375 702.241210938 l 1
 653.583984375 19.3916015625 l 1
 575.543945312 19.3916015625 l 1
 575.543945312 702.241210938 l 1
78.0400390625 702.241210938 m 1
 156.080078125 702.241210938 l 1
 404.83203125 190.104492188 l 1
 326.791992188 190.104492188 l 1
 78.0400390625 702.241210938 l 1
575.543945312 702.241210938 m 1
 653.583984375 702.241210938 l 1
 404.83203125 190.104492188 l 1
 326.791992188 190.104492188 l 1
 575.543945312 702.241210938 l 1
-0.5439453125 19.935546875 m 1
 -0.5439453125 18.84765625 l 1
 732.169921875 18.84765625 l 1
 732.169921875 19.935546875 l 1
 -0.5439453125 19.935546875 l 1
-0.5439453125 800.336914062 m 1
 -0.5439453125 799.249023438 l 1
 732.169921875 799.249023438 l 1
 732.169921875 800.336914062 l 1
 -0.5439453125 800.336914062 l 1
-0.5439453125 -198.577148438 m 1
 -0.5439453125 -199.665039062 l 1
 732.169921875 -199.665039062 l 1
 732.169921875 -198.577148438 l 1
 -0.5439453125 -198.577148438 l 1
-0.5439453125 -199.665039062 m 1
 0.5439453125 -199.665039062 l 1
 0.5439453125 800.336914062 l 1
 -0.5439453125 800.336914062 l 1
 -0.5439453125 -199.665039062 l 1
731.08203125 -199.665039062 m 1
 732.169921875 -199.665039062 l 1
 732.169921875 800.336914062 l 1
 731.08203125 800.336914062 l 1
 731.08203125 -199.665039062 l 1
EndSplineSet
EndChar

StartChar: N
Encoding: 78 78 13
Width: 625
Flags: HW
LayerCount: 2
Fore
SplineSet
78.0400390625 702.241210938 m 1
 156.080078125 702.241210938 l 1
 156.080078125 19.3916015625 l 1
 78.0400390625 19.3916015625 l 1
 78.0400390625 702.241210938 l 1
468.23828125 702.241210938 m 1
 546.279296875 702.241210938 l 1
 546.279296875 19.3916015625 l 1
 468.23828125 19.3916015625 l 1
 468.23828125 702.241210938 l 1
78.0400390625 702.241210938 m 1
 171.688476562 702.241210938 l 1
 546.279296875 19.3916015625 l 1
 452.630859375 19.3916015625 l 1
 78.0400390625 702.241210938 l 1
-0.5439453125 19.935546875 m 1
 -0.5439453125 18.84765625 l 1
 624.862304688 18.84765625 l 1
 624.862304688 19.935546875 l 1
 -0.5439453125 19.935546875 l 1
-0.5439453125 800.336914062 m 1
 -0.5439453125 799.249023438 l 1
 624.862304688 799.249023438 l 1
 624.862304688 800.336914062 l 1
 -0.5439453125 800.336914062 l 1
-0.5439453125 -198.577148438 m 1
 -0.5439453125 -199.665039062 l 1
 624.862304688 -199.665039062 l 1
 624.862304688 -198.577148438 l 1
 -0.5439453125 -198.577148438 l 1
-0.5439453125 -199.665039062 m 1
 0.5439453125 -199.665039062 l 1
 0.5439453125 800.336914062 l 1
 -0.5439453125 800.336914062 l 1
 -0.5439453125 -199.665039062 l 1
623.774414062 -199.665039062 m 1
 624.862304688 -199.665039062 l 1
 624.862304688 800.336914062 l 1
 623.774414062 800.336914062 l 1
 623.774414062 -199.665039062 l 1
EndSplineSet
EndChar

StartChar: O
Encoding: 79 79 14
Width: 644
Flags: HW
LayerCount: 2
Fore
SplineSet
321.915039062 710.045898438 m 1
 505.154296875 710.045898438 589.202148438 560.404296875 589.202148438 360.81640625 c 0
 589.202148438 161.229492188 505.154296875 11.587890625 321.915039062 11.587890625 c 0
 138.67578125 11.587890625 54.6279296875 161.229492188 54.6279296875 360.81640625 c 0
 54.6279296875 560.404296875 138.67578125 710.045898438 321.915039062 710.045898438 c 1
 321.915039062 647.614257812 l 1
 180.798828125 647.614257812 132.66796875 520.07421875 132.66796875 360.81640625 c 0
 132.66796875 201.559570312 180.798828125 74.01953125 321.915039062 74.01953125 c 0
 463.03125 74.01953125 511.162109375 201.559570312 511.162109375 360.81640625 c 0
 511.162109375 520.07421875 463.03125 647.614257812 321.915039062 647.614257812 c 1
 321.915039062 710.045898438 l 1
-0.5439453125 19.935546875 m 1
 -0.5439453125 18.84765625 l 1
 644.374023438 18.84765625 l 1
 644.374023438 19.935546875 l 1
 -0.5439453125 19.935546875 l 1
-0.5439453125 800.336914062 m 1
 -0.5439453125 799.249023438 l 1
 644.374023438 799.249023438 l 1
 644.374023438 800.336914062 l 1
 -0.5439453125 800.336914062 l 1
-0.5439453125 -198.577148438 m 1
 -0.5439453125 -199.665039062 l 1
 644.374023438 -199.665039062 l 1
 644.374023438 -198.577148438 l 1
 -0.5439453125 -198.577148438 l 1
-0.5439453125 -199.665039062 m 1
 0.5439453125 -199.665039062 l 1
 0.5439453125 800.336914062 l 1
 -0.5439453125 800.336914062 l 1
 -0.5439453125 -199.665039062 l 1
643.286132812 -199.665039062 m 1
 644.374023438 -199.665039062 l 1
 644.374023438 800.336914062 l 1
 643.286132812 800.336914062 l 1
 643.286132812 -199.665039062 l 1
EndSplineSet
EndChar

StartChar: P
Encoding: 80 80 15
Width: 586
Flags: HW
LayerCount: 2
Fore
SplineSet
78.0400390625 702.241210938 m 1
 156.080078125 702.241210938 l 1
 156.080078125 19.3916015625 l 1
 78.0400390625 19.3916015625 l 1
 78.0400390625 702.241210938 l 1
117.060546875 702.241210938 m 1
 321.916992188 702.241210938 l 2
 449.240234375 702.241210938 530.671875 623.890625 530.671875 497.384765625 c 0
 530.671875 370.877929688 449.240234375 292.52734375 321.916992188 292.52734375 c 2
 117.060546875 292.52734375 l 1
 117.060546875 354.959960938 l 1
 321.916992188 354.959960938 l 2
 404.60546875 354.959960938 452.631835938 412.252929688 452.631835938 497.384765625 c 0
 452.631835938 582.516601562 404.60546875 639.809570312 321.916992188 639.809570312 c 2
 117.060546875 639.809570312 l 1
 117.060546875 702.241210938 l 1
-0.5439453125 19.935546875 m 1
 -0.5439453125 18.84765625 l 1
 585.84375 18.84765625 l 1
 585.84375 19.935546875 l 1
 -0.5439453125 19.935546875 l 1
-0.5439453125 800.336914062 m 1
 -0.5439453125 799.249023438 l 1
 585.84375 799.249023438 l 1
 585.84375 800.336914062 l 1
 -0.5439453125 800.336914062 l 1
-0.5439453125 -198.577148438 m 1
 -0.5439453125 -199.665039062 l 1
 585.84375 -199.665039062 l 1
 585.84375 -198.577148438 l 1
 -0.5439453125 -198.577148438 l 1
-0.5439453125 -199.665039062 m 1
 0.5439453125 -199.665039062 l 1
 0.5439453125 800.336914062 l 1
 -0.5439453125 800.336914062 l 1
 -0.5439453125 -199.665039062 l 1
584.755859375 -199.665039062 m 1
 585.84375 -199.665039062 l 1
 585.84375 800.336914062 l 1
 584.755859375 800.336914062 l 1
 584.755859375 -199.665039062 l 1
EndSplineSet
EndChar

StartChar: Q
Encoding: 81 81 16
Width: 644
Flags: HW
LayerCount: 2
Fore
SplineSet
321.915039062 710.045898438 m 1
 505.154296875 710.045898438 589.202148438 560.404296875 589.202148438 360.81640625 c 0
 589.202148438 161.229492188 505.154296875 11.587890625 321.915039062 11.587890625 c 0
 138.67578125 11.587890625 54.6279296875 161.229492188 54.6279296875 360.81640625 c 0
 54.6279296875 560.404296875 138.67578125 710.045898438 321.915039062 710.045898438 c 1
 321.915039062 647.614257812 l 1
 180.798828125 647.614257812 132.66796875 520.07421875 132.66796875 360.81640625 c 0
 132.66796875 201.559570312 180.798828125 74.01953125 321.915039062 74.01953125 c 0
 463.03125 74.01953125 511.162109375 201.559570312 511.162109375 360.81640625 c 0
 511.162109375 520.07421875 463.03125 647.614257812 321.915039062 647.614257812 c 1
 321.915039062 710.045898438 l 1
360.935546875 19.3916015625 m 1
 360.935546875 -45.4072265625 400.256835938 -105.471679688 460.438476562 -105.471679688 c 2
 550.182617188 -105.471679688 l 1
 550.182617188 -167.904296875 l 1
 460.438476562 -167.904296875 l 2
 360.560546875 -167.904296875 282.895507812 -82.322265625 282.895507812 19.3916015625 c 1
 360.935546875 19.3916015625 l 1
-0.5439453125 19.935546875 m 1
 -0.5439453125 18.84765625 l 1
 644.374023438 18.84765625 l 1
 644.374023438 19.935546875 l 1
 -0.5439453125 19.935546875 l 1
-0.5439453125 800.336914062 m 1
 -0.5439453125 799.249023438 l 1
 644.374023438 799.249023438 l 1
 644.374023438 800.336914062 l 1
 -0.5439453125 800.336914062 l 1
-0.5439453125 -198.577148438 m 1
 -0.5439453125 -199.665039062 l 1
 644.374023438 -199.665039062 l 1
 644.374023438 -198.577148438 l 1
 -0.5439453125 -198.577148438 l 1
-0.5439453125 -199.665039062 m 1
 0.5439453125 -199.665039062 l 1
 0.5439453125 800.336914062 l 1
 -0.5439453125 800.336914062 l 1
 -0.5439453125 -199.665039062 l 1
643.286132812 -199.665039062 m 1
 644.374023438 -199.665039062 l 1
 644.374023438 800.336914062 l 1
 643.286132812 800.336914062 l 1
 643.286132812 -199.665039062 l 1
EndSplineSet
EndChar

StartChar: R
Encoding: 82 82 17
Width: 586
Flags: HW
LayerCount: 2
Fore
SplineSet
78.0400390625 702.241210938 m 1
 156.080078125 702.241210938 l 1
 156.080078125 19.3916015625 l 1
 78.0400390625 19.3916015625 l 1
 78.0400390625 702.241210938 l 1
117.060546875 702.241210938 m 1
 321.916992188 702.241210938 l 2
 449.240234375 702.241210938 530.671875 623.890625 530.671875 497.384765625 c 0
 530.671875 370.877929688 449.240234375 292.52734375 321.916992188 292.52734375 c 2
 117.060546875 292.52734375 l 1
 117.060546875 354.959960938 l 1
 321.916992188 354.959960938 l 2
 404.60546875 354.959960938 452.631835938 412.252929688 452.631835938 497.384765625 c 0
 452.631835938 582.516601562 404.60546875 639.809570312 321.916992188 639.809570312 c 2
 117.060546875 639.809570312 l 1
 117.060546875 702.241210938 l 1
360.936523438 323.743164062 m 1
 530.671875 19.3916015625 l 1
 452.631835938 19.3916015625 l 1
 282.896484375 323.743164062 l 1
 360.936523438 323.743164062 l 1
-0.5439453125 19.935546875 m 1
 -0.5439453125 18.84765625 l 1
 585.84375 18.84765625 l 1
 585.84375 19.935546875 l 1
 -0.5439453125 19.935546875 l 1
-0.5439453125 800.336914062 m 1
 -0.5439453125 799.249023438 l 1
 585.84375 799.249023438 l 1
 585.84375 800.336914062 l 1
 -0.5439453125 800.336914062 l 1
-0.5439453125 -198.577148438 m 1
 -0.5439453125 -199.665039062 l 1
 585.84375 -199.665039062 l 1
 585.84375 -198.577148438 l 1
 -0.5439453125 -198.577148438 l 1
-0.5439453125 -199.665039062 m 1
 0.5439453125 -199.665039062 l 1
 0.5439453125 800.336914062 l 1
 -0.5439453125 800.336914062 l 1
 -0.5439453125 -199.665039062 l 1
584.755859375 -199.665039062 m 1
 585.84375 -199.665039062 l 1
 585.84375 800.336914062 l 1
 584.755859375 800.336914062 l 1
 584.755859375 -199.665039062 l 1
EndSplineSet
EndChar

StartChar: S
Encoding: 83 83 18
Width: 566
Flags: HW
LayerCount: 2
Fore
SplineSet
288.549804688 710.045898438 m 0
 379.890625 710.045898438 439.19140625 676.626953125 509.208007812 617.875 c 1
 469.077148438 570.049804688 l 1
 411.53125 618.336914062 363.616210938 647.614257812 288.549804688 647.614257812 c 0
 199.30078125 647.614257812 132.66796875 609.430664062 132.66796875 527.299804688 c 0
 132.66796875 455.610351562 187.403320312 422.780273438 261.711914062 406.985351562 c 2
 317.05859375 395.220703125 l 2
 431.377929688 370.920898438 511.162109375 314.311523438 511.162109375 202.786132812 c 0
 511.162109375 75.814453125 412.919921875 11.587890625 277.240234375 11.587890625 c 0
 183.962890625 11.587890625 126.13671875 51.55859375 54.6279296875 111.5625 c 1
 94.7587890625 159.387695312 l 1
 153.827148438 109.822265625 200.184570312 74.01953125 277.240234375 74.01953125 c 0
 367.8828125 74.01953125 433.122070312 117.686523438 433.122070312 202.786132812 c 0
 433.122070312 278.08203125 380.860351562 317.83203125 304.078125 334.153320312 c 2
 248.731445312 345.91796875 l 2
 136.868164062 369.6953125 54.6279296875 419.33984375 54.6279296875 527.299804688 c 0
 54.6279296875 651.30078125 154.263671875 710.045898438 288.549804688 710.045898438 c 0
-0.5439453125 19.935546875 m 1
 -0.5439453125 18.84765625 l 1
 566.333984375 18.84765625 l 1
 566.333984375 19.935546875 l 1
 -0.5439453125 19.935546875 l 1
-0.5439453125 800.336914062 m 1
 -0.5439453125 799.249023438 l 1
 566.333984375 799.249023438 l 1
 566.333984375 800.336914062 l 1
 -0.5439453125 800.336914062 l 1
-0.5439453125 -198.577148438 m 1
 -0.5439453125 -199.665039062 l 1
 566.333984375 -199.665039062 l 1
 566.333984375 -198.577148438 l 1
 -0.5439453125 -198.577148438 l 1
-0.5439453125 -199.665039062 m 1
 0.5439453125 -199.665039062 l 1
 0.5439453125 800.336914062 l 1
 -0.5439453125 800.336914062 l 1
 -0.5439453125 -199.665039062 l 1
565.24609375 -199.665039062 m 1
 566.333984375 -199.665039062 l 1
 566.333984375 800.336914062 l 1
 565.24609375 800.336914062 l 1
 565.24609375 -199.665039062 l 1
EndSplineSet
EndChar

StartChar: T
Encoding: 84 84 19
Width: 596
Flags: HW
LayerCount: 2
Fore
SplineSet
59.5087890625 639.809570312 m 1
 59.5087890625 702.241210938 l 1
 535.545898438 702.241210938 l 1
 535.545898438 639.809570312 l 1
 59.5087890625 639.809570312 l 1
258.5078125 671.025390625 m 1
 336.547851562 671.025390625 l 1
 336.547851562 19.3916015625 l 1
 258.5078125 19.3916015625 l 1
 258.5078125 671.025390625 l 1
-0.5439453125 19.935546875 m 1
 -0.5439453125 18.84765625 l 1
 595.599609375 18.84765625 l 1
 595.599609375 19.935546875 l 1
 -0.5439453125 19.935546875 l 1
-0.5439453125 800.336914062 m 1
 -0.5439453125 799.249023438 l 1
 595.599609375 799.249023438 l 1
 595.599609375 800.336914062 l 1
 -0.5439453125 800.336914062 l 1
-0.5439453125 -198.577148438 m 1
 -0.5439453125 -199.665039062 l 1
 595.599609375 -199.665039062 l 1
 595.599609375 -198.577148438 l 1
 -0.5439453125 -198.577148438 l 1
-0.5439453125 -199.665039062 m 1
 0.5439453125 -199.665039062 l 1
 0.5439453125 800.336914062 l 1
 -0.5439453125 800.336914062 l 1
 -0.5439453125 -199.665039062 l 1
594.51171875 -199.665039062 m 1
 595.599609375 -199.665039062 l 1
 595.599609375 800.336914062 l 1
 594.51171875 800.336914062 l 1
 594.51171875 -199.665039062 l 1
EndSplineSet
EndChar

StartChar: U
Encoding: 85 85 20
Width: 620
Flags: HW
LayerCount: 2
Fore
SplineSet
78.0400390625 702.241210938 m 1
 156.080078125 702.241210938 l 1
 156.080078125 251.073242188 l 2
 156.080078125 157.267578125 220.272460938 74.01953125 309.721679688 74.01953125 c 0
 399.169921875 74.01953125 463.362304688 157.267578125 463.362304688 251.073242188 c 2
 463.362304688 702.241210938 l 1
 541.40234375 702.241210938 l 1
 541.40234375 251.073242188 l 2
 541.40234375 120.204101562 439.119140625 11.587890625 309.721679688 11.587890625 c 0
 180.32421875 11.587890625 78.0400390625 120.204101562 78.0400390625 251.073242188 c 2
 78.0400390625 702.241210938 l 1
-0.5439453125 19.935546875 m 1
 -0.5439453125 18.84765625 l 1
 619.985351562 18.84765625 l 1
 619.985351562 19.935546875 l 1
 -0.5439453125 19.935546875 l 1
-0.5439453125 800.336914062 m 1
 -0.5439453125 799.249023438 l 1
 619.985351562 799.249023438 l 1
 619.985351562 800.336914062 l 1
 -0.5439453125 800.336914062 l 1
-0.5439453125 -198.577148438 m 1
 -0.5439453125 -199.665039062 l 1
 619.985351562 -199.665039062 l 1
 619.985351562 -198.577148438 l 1
 -0.5439453125 -198.577148438 l 1
-0.5439453125 -199.665039062 m 1
 0.5439453125 -199.665039062 l 1
 0.5439453125 800.336914062 l 1
 -0.5439453125 800.336914062 l 1
 -0.5439453125 -199.665039062 l 1
618.897460938 -199.665039062 m 1
 619.985351562 -199.665039062 l 1
 619.985351562 800.336914062 l 1
 618.897460938 800.336914062 l 1
 618.897460938 -199.665039062 l 1
EndSplineSet
EndChar

StartChar: V
Encoding: 86 86 21
Width: 639
Flags: HW
LayerCount: 2
Fore
SplineSet
39.0205078125 702.241210938 m 1
 117.060546875 702.241210938 l 1
 358.49609375 19.3916015625 l 1
 280.456054688 19.3916015625 l 1
 39.0205078125 702.241210938 l 1
521.892578125 702.241210938 m 1
 599.932617188 702.241210938 l 1
 358.49609375 19.3916015625 l 1
 280.456054688 19.3916015625 l 1
 521.892578125 702.241210938 l 1
-0.5439453125 19.935546875 m 1
 -0.5439453125 18.84765625 l 1
 639.497070312 18.84765625 l 1
 639.497070312 19.935546875 l 1
 -0.5439453125 19.935546875 l 1
-0.5439453125 800.336914062 m 1
 -0.5439453125 799.249023438 l 1
 639.497070312 799.249023438 l 1
 639.497070312 800.336914062 l 1
 -0.5439453125 800.336914062 l 1
-0.5439453125 -198.577148438 m 1
 -0.5439453125 -199.665039062 l 1
 639.497070312 -199.665039062 l 1
 639.497070312 -198.577148438 l 1
 -0.5439453125 -198.577148438 l 1
-0.5439453125 -199.665039062 m 1
 0.5439453125 -199.665039062 l 1
 0.5439453125 800.336914062 l 1
 -0.5439453125 800.336914062 l 1
 -0.5439453125 -199.665039062 l 1
638.409179688 -199.665039062 m 1
 639.497070312 -199.665039062 l 1
 639.497070312 800.336914062 l 1
 638.409179688 800.336914062 l 1
 638.409179688 -199.665039062 l 1
EndSplineSet
EndChar

StartChar: W
Encoding: 87 87 22
Width: 800
Flags: HW
LayerCount: 2
Fore
SplineSet
39.0205078125 702.241210938 m 1
 117.060546875 702.241210938 l 1
 238.997070312 19.3916015625 l 1
 160.95703125 19.3916015625 l 1
 39.0205078125 702.241210938 l 1
160.95703125 19.3916015625 m 1
 360.934570312 702.241210938 l 1
 438.974609375 702.241210938 l 1
 238.997070312 19.3916015625 l 1
 160.95703125 19.3916015625 l 1
360.934570312 702.241210938 m 1
 438.974609375 702.241210938 l 1
 619.442382812 19.3916015625 l 1
 541.401367188 19.3916015625 l 1
 360.934570312 702.241210938 l 1
682.848632812 702.241210938 m 1
 760.889648438 702.241210938 l 1
 619.442382812 19.3916015625 l 1
 541.401367188 19.3916015625 l 1
 682.848632812 702.241210938 l 1
-0.5439453125 19.935546875 m 1
 -0.5439453125 18.84765625 l 1
 800.454101562 18.84765625 l 1
 800.454101562 19.935546875 l 1
 -0.5439453125 19.935546875 l 1
-0.5439453125 800.336914062 m 1
 -0.5439453125 799.249023438 l 1
 800.454101562 799.249023438 l 1
 800.454101562 800.336914062 l 1
 -0.5439453125 800.336914062 l 1
-0.5439453125 -198.577148438 m 1
 -0.5439453125 -199.665039062 l 1
 800.454101562 -199.665039062 l 1
 800.454101562 -198.577148438 l 1
 -0.5439453125 -198.577148438 l 1
-0.5439453125 -199.665039062 m 1
 0.5439453125 -199.665039062 l 1
 0.5439453125 800.336914062 l 1
 -0.5439453125 800.336914062 l 1
 -0.5439453125 -199.665039062 l 1
799.366210938 -199.665039062 m 1
 800.454101562 -199.665039062 l 1
 800.454101562 800.336914062 l 1
 799.366210938 800.336914062 l 1
 799.366210938 -199.665039062 l 1
EndSplineSet
EndChar

StartChar: X
Encoding: 88 88 23
Width: 644
Flags: HW
LayerCount: 2
Fore
SplineSet
39.0205078125 702.241210938 m 1
 117.060546875 702.241210938 l 1
 604.810546875 19.3916015625 l 1
 526.76953125 19.3916015625 l 1
 39.0205078125 702.241210938 l 1
526.76953125 702.241210938 m 1
 604.810546875 702.241210938 l 1
 117.060546875 19.3916015625 l 1
 39.0205078125 19.3916015625 l 1
 526.76953125 702.241210938 l 1
-0.5439453125 19.935546875 m 1
 -0.5439453125 18.84765625 l 1
 644.374023438 18.84765625 l 1
 644.374023438 19.935546875 l 1
 -0.5439453125 19.935546875 l 1
-0.5439453125 800.336914062 m 1
 -0.5439453125 799.249023438 l 1
 644.374023438 799.249023438 l 1
 644.374023438 800.336914062 l 1
 -0.5439453125 800.336914062 l 1
-0.5439453125 -198.577148438 m 1
 -0.5439453125 -199.665039062 l 1
 644.374023438 -199.665039062 l 1
 644.374023438 -198.577148438 l 1
 -0.5439453125 -198.577148438 l 1
-0.5439453125 -199.665039062 m 1
 0.5439453125 -199.665039062 l 1
 0.5439453125 800.336914062 l 1
 -0.5439453125 800.336914062 l 1
 -0.5439453125 -199.665039062 l 1
643.286132812 -199.665039062 m 1
 644.374023438 -199.665039062 l 1
 644.374023438 800.336914062 l 1
 643.286132812 800.336914062 l 1
 643.286132812 -199.665039062 l 1
EndSplineSet
EndChar

StartChar: Y
Encoding: 89 89 24
Width: 576
Flags: HW
LayerCount: 2
Fore
SplineSet
39.0205078125 702.241210938 m 1
 117.060546875 702.241210938 l 1
 326.791992188 326.671875 l 1
 248.751953125 326.671875 l 1
 39.0205078125 702.241210938 l 1
458.483398438 702.241210938 m 1
 536.524414062 702.241210938 l 1
 326.791992188 326.671875 l 1
 248.751953125 326.671875 l 1
 458.483398438 702.241210938 l 1
248.751953125 326.671875 m 1
 326.791992188 326.671875 l 1
 326.791992188 19.3916015625 l 1
 248.751953125 19.3916015625 l 1
 248.751953125 326.671875 l 1
-0.5439453125 19.935546875 m 1
 -0.5439453125 18.84765625 l 1
 576.086914062 18.84765625 l 1
 576.086914062 19.935546875 l 1
 -0.5439453125 19.935546875 l 1
-0.5439453125 800.336914062 m 1
 -0.5439453125 799.249023438 l 1
 576.086914062 799.249023438 l 1
 576.086914062 800.336914062 l 1
 -0.5439453125 800.336914062 l 1
-0.5439453125 -198.577148438 m 1
 -0.5439453125 -199.665039062 l 1
 576.086914062 -199.665039062 l 1
 576.086914062 -198.577148438 l 1
 -0.5439453125 -198.577148438 l 1
-0.5439453125 -199.665039062 m 1
 0.5439453125 -199.665039062 l 1
 0.5439453125 800.336914062 l 1
 -0.5439453125 800.336914062 l 1
 -0.5439453125 -199.665039062 l 1
574.999023438 -199.665039062 m 1
 576.086914062 -199.665039062 l 1
 576.086914062 800.336914062 l 1
 574.999023438 800.336914062 l 1
 574.999023438 -199.665039062 l 1
EndSplineSet
EndChar

StartChar: Z
Encoding: 90 90 25
Width: 586
Flags: HW
LayerCount: 2
Fore
SplineSet
78.0400390625 639.809570312 m 1
 78.0400390625 702.241210938 l 1
 507.259765625 702.241210938 l 1
 507.259765625 639.809570312 l 1
 78.0400390625 639.809570312 l 1
78.0400390625 19.3916015625 m 1
 78.0400390625 81.82421875 l 1
 507.259765625 81.82421875 l 1
 507.259765625 19.3916015625 l 1
 78.0400390625 19.3916015625 l 1
429.21875 639.809570312 m 1
 507.259765625 639.809570312 l 1
 156.080078125 81.82421875 l 1
 78.0400390625 81.82421875 l 1
 429.21875 639.809570312 l 1
-0.5439453125 19.935546875 m 1
 -0.5439453125 18.84765625 l 1
 585.84375 18.84765625 l 1
 585.84375 19.935546875 l 1
 -0.5439453125 19.935546875 l 1
-0.5439453125 800.336914062 m 1
 -0.5439453125 799.249023438 l 1
 585.84375 799.249023438 l 1
 585.84375 800.336914062 l 1
 -0.5439453125 800.336914062 l 1
-0.5439453125 -198.577148438 m 1
 -0.5439453125 -199.665039062 l 1
 585.84375 -199.665039062 l 1
 585.84375 -198.577148438 l 1
 -0.5439453125 -198.577148438 l 1
-0.5439453125 -199.665039062 m 1
 0.5439453125 -199.665039062 l 1
 0.5439453125 800.336914062 l 1
 -0.5439453125 800.336914062 l 1
 -0.5439453125 -199.665039062 l 1
584.755859375 -199.665039062 m 1
 585.84375 -199.665039062 l 1
 585.84375 800.336914062 l 1
 584.755859375 800.336914062 l 1
 584.755859375 -199.665039062 l 1
EndSplineSet
EndChar

StartChar: a
Encoding: 97 97 26
Width: 518
Flags: HW
LayerCount: 2
Fore
SplineSet
87.3486328125 459.548828125 m 1
 133.291992188 512.418945312 181.635742188 534.455078125 251.677734375 534.455078125 c 0
 366.221679688 534.455078125 438.974609375 463.243164062 438.974609375 349.107421875 c 2
 438.974609375 19.3916015625 l 1
 376.541992188 19.3916015625 l 1
 360.934570312 118.502929688 l 1
 360.934570312 349.107421875 l 2
 360.934570312 421.928710938 321.663085938 472.0234375 251.677734375 472.0234375 c 0
 197.423828125 472.0234375 159.782226562 457.580078125 119.454101562 421.288085938 c 1
 87.3486328125 459.548828125 l 1
399.955078125 314.384765625 m 1
 399.955078125 251.953125 l 1
 237.2421875 251.953125 l 2
 175.9921875 251.953125 132.66796875 221.0234375 132.66796875 162.986328125 c 0
 132.66796875 104.94921875 175.9921875 74.01953125 237.2421875 74.01953125 c 0
 288.296875 74.01953125 335.462890625 101.290039062 360.934570312 145.537109375 c 1
 376.54296875 118.502929688 l 1
 350.295898438 53.8671875 287.494140625 11.587890625 217.732421875 11.587890625 c 0
 119.921875 11.587890625 54.6279296875 67.62109375 54.6279296875 162.986328125 c 0
 54.6279296875 262.879882812 130.961914062 314.384765625 237.2421875 314.384765625 c 2
 399.955078125 314.384765625 l 1
-0.5439453125 19.935546875 m 1
 -0.5439453125 18.84765625 l 1
 517.559570312 18.84765625 l 1
 517.559570312 19.935546875 l 1
 -0.5439453125 19.935546875 l 1
-0.5439453125 800.336914062 m 1
 -0.5439453125 799.249023438 l 1
 517.559570312 799.249023438 l 1
 517.559570312 800.336914062 l 1
 -0.5439453125 800.336914062 l 1
-0.5439453125 -198.577148438 m 1
 -0.5439453125 -199.665039062 l 1
 517.559570312 -199.665039062 l 1
 517.559570312 -198.577148438 l 1
 -0.5439453125 -198.577148438 l 1
-0.5439453125 -199.665039062 m 1
 0.5439453125 -199.665039062 l 1
 0.5439453125 800.336914062 l 1
 -0.5439453125 800.336914062 l 1
 -0.5439453125 -199.665039062 l 1
516.471679688 -199.665039062 m 1
 517.559570312 -199.665039062 l 1
 517.559570312 800.336914062 l 1
 516.471679688 800.336914062 l 1
 516.471679688 -199.665039062 l 1
EndSplineSet
EndChar

StartChar: b
Encoding: 98 98 27
Width: 570
Flags: HW
LayerCount: 2
Fore
SplineSet
62.431640625 710.045898438 m 1
 140.471679688 710.045898438 l 1
 140.471679688 155.959960938 l 1
 124.864257812 19.3916015625 l 1
 62.431640625 19.3916015625 l 1
 62.431640625 710.045898438 l 1
113.584960938 426.58984375 m 1
 145.155273438 492.5078125 211.756835938 534.455078125 284.845703125 534.455078125 c 0
 432.87109375 534.455078125 515.063476562 427.51953125 515.063476562 273.021484375 c 0
 515.063476562 118.524414062 432.87109375 11.587890625 284.845703125 11.587890625 c 0
 207.001953125 11.587890625 137.946289062 61.5419921875 113.584960938 135.474609375 c 1
 140.471679688 167.517578125 l 1
 165.97265625 110.629882812 222.502929688 74.01953125 284.845703125 74.01953125 c 0
 389.216796875 74.01953125 437.0234375 159.311523438 437.0234375 273.021484375 c 0
 437.0234375 386.732421875 389.216796875 472.0234375 284.845703125 472.0234375 c 0
 226.778320312 472.0234375 172.572265625 442.934570312 140.471679688 394.546875 c 1
 113.584960938 426.58984375 l 1
-0.5439453125 19.935546875 m 1
 -0.5439453125 18.84765625 l 1
 570.235351562 18.84765625 l 1
 570.235351562 19.935546875 l 1
 -0.5439453125 19.935546875 l 1
-0.5439453125 800.336914062 m 1
 -0.5439453125 799.249023438 l 1
 570.235351562 799.249023438 l 1
 570.235351562 800.336914062 l 1
 -0.5439453125 800.336914062 l 1
-0.5439453125 -198.577148438 m 1
 -0.5439453125 -199.665039062 l 1
 570.235351562 -199.665039062 l 1
 570.235351562 -198.577148438 l 1
 -0.5439453125 -198.577148438 l 1
-0.5439453125 -199.665039062 m 1
 0.5439453125 -199.665039062 l 1
 0.5439453125 800.336914062 l 1
 -0.5439453125 800.336914062 l 1
 -0.5439453125 -199.665039062 l 1
569.147460938 -199.665039062 m 1
 570.235351562 -199.665039062 l 1
 570.235351562 800.336914062 l 1
 569.147460938 800.336914062 l 1
 569.147460938 -199.665039062 l 1
EndSplineSet
EndChar

StartChar: c
Encoding: 99 99 28
Width: 493
Flags: HW
LayerCount: 2
Fore
SplineSet
458.065429688 464.331054688 m 1
 417.934570312 416.505859375 l 1
 374.690429688 456.180664062 333.98828125 472.0234375 275.30078125 472.0234375 c 0
 174.029296875 472.0234375 132.66796875 385.236328125 132.66796875 273.021484375 c 0
 132.66796875 160.807617188 174.029296875 74.01953125 275.30078125 74.01953125 c 0
 328.119140625 74.01953125 379.015625 93.830078125 417.934570312 129.538085938 c 1
 458.065429688 81.712890625 l 1
 407.895507812 36.5673828125 342.79296875 11.587890625 275.30078125 11.587890625 c 0
 130.854492188 11.587890625 54.6279296875 120.197265625 54.6279296875 273.021484375 c 0
 54.6279296875 425.845703125 130.854492188 534.455078125 275.30078125 534.455078125 c 0
 350.291992188 534.455078125 402.321289062 514.4921875 458.065429688 464.331054688 c 1
-0.5439453125 19.935546875 m 1
 -0.5439453125 18.84765625 l 1
 493.172851562 18.84765625 l 1
 493.172851562 19.935546875 l 1
 -0.5439453125 19.935546875 l 1
-0.5439453125 800.336914062 m 1
 -0.5439453125 799.249023438 l 1
 493.172851562 799.249023438 l 1
 493.172851562 800.336914062 l 1
 -0.5439453125 800.336914062 l 1
-0.5439453125 -198.577148438 m 1
 -0.5439453125 -199.665039062 l 1
 493.172851562 -199.665039062 l 1
 493.172851562 -198.577148438 l 1
 -0.5439453125 -198.577148438 l 1
-0.5439453125 -199.665039062 m 1
 0.5439453125 -199.665039062 l 1
 0.5439453125 800.336914062 l 1
 -0.5439453125 800.336914062 l 1
 -0.5439453125 -199.665039062 l 1
492.084960938 -199.665039062 m 1
 493.172851562 -199.665039062 l 1
 493.172851562 800.336914062 l 1
 492.084960938 800.336914062 l 1
 492.084960938 -199.665039062 l 1
EndSplineSet
EndChar

StartChar: d
Encoding: 100 100 29
Width: 570
Flags: HW
LayerCount: 2
Fore
SplineSet
429.21875 710.045898438 m 1
 507.259765625 710.045898438 l 1
 507.259765625 19.3916015625 l 1
 444.827148438 19.3916015625 l 1
 429.21875 155.959960938 l 1
 429.21875 710.045898438 l 1
456.106445312 426.58984375 m 1
 429.21875 394.546875 l 1
 397.119140625 442.934570312 342.913085938 472.0234375 284.845703125 472.0234375 c 0
 180.474609375 472.0234375 132.66796875 386.732421875 132.66796875 273.021484375 c 0
 132.66796875 159.311523438 180.474609375 74.01953125 284.845703125 74.01953125 c 0
 347.188476562 74.01953125 403.71875 110.629882812 429.21875 167.517578125 c 1
 456.106445312 135.474609375 l 1
 431.745117188 61.5419921875 362.689453125 11.587890625 284.845703125 11.587890625 c 0
 136.8203125 11.587890625 54.6279296875 118.524414062 54.6279296875 273.021484375 c 0
 54.6279296875 427.51953125 136.8203125 534.455078125 284.845703125 534.455078125 c 0
 357.934570312 534.455078125 424.53515625 492.5078125 456.106445312 426.58984375 c 1
-0.5439453125 19.935546875 m 1
 -0.5439453125 18.84765625 l 1
 570.235351562 18.84765625 l 1
 570.235351562 19.935546875 l 1
 -0.5439453125 19.935546875 l 1
-0.5439453125 800.336914062 m 1
 -0.5439453125 799.249023438 l 1
 570.235351562 799.249023438 l 1
 570.235351562 800.336914062 l 1
 -0.5439453125 800.336914062 l 1
-0.5439453125 -198.577148438 m 1
 -0.5439453125 -199.665039062 l 1
 570.235351562 -199.665039062 l 1
 570.235351562 -198.577148438 l 1
 -0.5439453125 -198.577148438 l 1
-0.5439453125 -199.665039062 m 1
 0.5439453125 -199.665039062 l 1
 0.5439453125 800.336914062 l 1
 -0.5439453125 800.336914062 l 1
 -0.5439453125 -199.665039062 l 1
569.147460938 -199.665039062 m 1
 570.235351562 -199.665039062 l 1
 570.235351562 800.336914062 l 1
 569.147460938 800.336914062 l 1
 569.147460938 -199.665039062 l 1
EndSplineSet
EndChar

StartChar: e
Encoding: 101 101 30
Width: 532
Flags: HW
LayerCount: 2
Fore
SplineSet
398.978515625 241.805664062 m 1
 399.48828125 262.61328125 399.48828125 283.4296875 398.978515625 304.237304688 c 0
 396.662109375 398.845703125 362.120117188 472.0234375 276.458984375 472.0234375 c 0
 174.823242188 472.0234375 132.66796875 385.4140625 132.66796875 273.021484375 c 0
 132.66796875 160.62890625 174.823242188 74.01953125 276.458984375 74.01953125 c 0
 334.09375 74.01953125 387.536132812 104.143554688 417.37890625 153.450195312 c 1
 457.508789062 105.625 l 1
 416.068359375 46.6728515625 348.51953125 11.587890625 276.458984375 11.587890625 c 0
 131.583984375 11.587890625 54.6279296875 119.998046875 54.6279296875 273.021484375 c 0
 54.6279296875 426.045898438 131.583984375 534.455078125 276.458984375 534.455078125 c 0
 404.041992188 534.455078125 470.126953125 439.139648438 477.01953125 304.237304688 c 0
 478.08203125 283.440429688 478.08203125 262.602539062 477.01953125 241.805664062 c 1
 398.978515625 241.805664062 l 1
93.6474609375 241.805664062 m 1
 93.6474609375 304.237304688 l 1
 477.01953125 304.237304688 l 1
 477.01953125 241.805664062 l 1
 93.6474609375 241.805664062 l 1
-0.5439453125 19.935546875 m 1
 -0.5439453125 18.84765625 l 1
 532.189453125 18.84765625 l 1
 532.189453125 19.935546875 l 1
 -0.5439453125 19.935546875 l 1
-0.5439453125 800.336914062 m 1
 -0.5439453125 799.249023438 l 1
 532.189453125 799.249023438 l 1
 532.189453125 800.336914062 l 1
 -0.5439453125 800.336914062 l 1
-0.5439453125 -198.577148438 m 1
 -0.5439453125 -199.665039062 l 1
 532.189453125 -199.665039062 l 1
 532.189453125 -198.577148438 l 1
 -0.5439453125 -198.577148438 l 1
-0.5439453125 -199.665039062 m 1
 0.5439453125 -199.665039062 l 1
 0.5439453125 800.336914062 l 1
 -0.5439453125 800.336914062 l 1
 -0.5439453125 -199.665039062 l 1
531.1015625 -199.665039062 m 1
 532.189453125 -199.665039062 l 1
 532.189453125 800.336914062 l 1
 531.1015625 800.336914062 l 1
 531.1015625 -199.665039062 l 1
EndSplineSet
EndChar

StartChar: f
Encoding: 102 102 31
Width: 410
Flags: HW
LayerCount: 2
Fore
SplineSet
149.44921875 19.3916015625 m 1
 149.44921875 599.818359375 l 2
 149.44921875 685.618164062 211.2109375 733.458007812 300.65625 733.458007812 c 0
 312.21875 733.458007812 323.33203125 728.983398438 331.668945312 720.971679688 c 2
 331.668945312 671.025390625 l 1
 300.65625 671.025390625 l 2
 260.598632812 671.025390625 227.489257812 639.505859375 227.489257812 599.818359375 c 2
 227.489257812 19.3916015625 l 1
 149.44921875 19.3916015625 l 1
78.0400390625 526.651367188 m 1
 331.668945312 526.651367188 l 1
 331.668945312 464.219726562 l 1
 78.0400390625 464.219726562 l 1
 78.0400390625 526.651367188 l 1
-0.5439453125 19.935546875 m 1
 -0.5439453125 18.84765625 l 1
 410.25390625 18.84765625 l 1
 410.25390625 19.935546875 l 1
 -0.5439453125 19.935546875 l 1
-0.5439453125 800.336914062 m 1
 -0.5439453125 799.249023438 l 1
 410.25390625 799.249023438 l 1
 410.25390625 800.336914062 l 1
 -0.5439453125 800.336914062 l 1
-0.5439453125 -198.577148438 m 1
 -0.5439453125 -199.665039062 l 1
 410.25390625 -199.665039062 l 1
 410.25390625 -198.577148438 l 1
 -0.5439453125 -198.577148438 l 1
-0.5439453125 -199.665039062 m 1
 0.5439453125 -199.665039062 l 1
 0.5439453125 800.336914062 l 1
 -0.5439453125 800.336914062 l 1
 -0.5439453125 -199.665039062 l 1
409.166015625 -199.665039062 m 1
 410.25390625 -199.665039062 l 1
 410.25390625 800.336914062 l 1
 409.166015625 800.336914062 l 1
 409.166015625 -199.665039062 l 1
EndSplineSet
EndChar

StartChar: g
Encoding: 103 103 32
Width: 537
Flags: HW
LayerCount: 2
Fore
SplineSet
228.020507812 534.455078125 m 1
 338.904296875 534.455078125 414.5859375 473.64453125 414.5859375 366.666992188 c 0
 414.5859375 259.689453125 338.904296875 198.87890625 228.020507812 198.87890625 c 0
 117.13671875 198.87890625 41.455078125 259.689453125 41.455078125 366.666992188 c 0
 41.455078125 473.64453125 117.13671875 534.455078125 228.020507812 534.455078125 c 1
 228.020507812 472.0234375 l 1
 162.0546875 472.0234375 119.495117188 431.969726562 119.495117188 366.666992188 c 0
 119.495117188 301.365234375 162.0546875 261.310546875 228.020507812 261.310546875 c 0
 293.986328125 261.310546875 336.545898438 301.365234375 336.545898438 366.666992188 c 0
 336.545898438 431.969726562 293.986328125 472.0234375 228.020507812 472.0234375 c 1
 228.020507812 534.455078125 l 1
301.79296875 440.807617188 m 1
 301.79296875 503.239257812 l 1
 489.580078125 503.239257812 l 1
 489.580078125 440.807617188 l 1
 301.79296875 440.807617188 l 1
228.020507812 230.094726562 m 1
 228.020507812 198.87890625 l 1
 182.927734375 214.333984375 133.9453125 189.6796875 119.495117188 144.254882812 c 0
 109.221679688 111.95703125 149.25 89.6298828125 193.268554688 89.6298828125 c 1
 193.268554688 89.6298828125 l 1
 336.545898438 89.6298828125 l 2
 412.37890625 89.6298828125 484.806640625 48.6103515625 482.869140625 -19.630859375 c 0
 480.10546875 -116.979492188 338.678710938 -166.90625 228.020507812 -167.904296875 c 0
 141.040039062 -168.6875 51.0107421875 -137.397460938 41.455078125 -58.65234375 c 0
 32.7978515625 12.6943359375 100.872070312 69.068359375 169.35546875 47.263671875 c 1
 193.268554688 27.1982421875 l 1
 138.318359375 52.4130859375 80.9052734375 -2.732421875 103.887695312 -58.65234375 c 0
 122.047851562 -102.842773438 178.041015625 -105.471679688 228.020507812 -105.471679688 c 0
 307.55859375 -105.471679688 411.763671875 -84.7998046875 404.829101562 -19.630859375 c 0
 401.583984375 10.8603515625 369.40625 27.1982421875 336.545898438 27.1982421875 c 2
 193.268554688 27.1982421875 l 2
 109.5625 27.1982421875 31.21484375 73.25390625 41.455078125 144.254882812 c 0
 52.177734375 218.598632812 144.6875 230.094726562 228.020507812 230.094726562 c 1
-0.5439453125 19.935546875 m 1
 -0.5439453125 18.84765625 l 1
 537.068359375 18.84765625 l 1
 537.068359375 19.935546875 l 1
 -0.5439453125 19.935546875 l 1
-0.5439453125 800.336914062 m 1
 -0.5439453125 799.249023438 l 1
 537.068359375 799.249023438 l 1
 537.068359375 800.336914062 l 1
 -0.5439453125 800.336914062 l 1
-0.5439453125 -198.577148438 m 1
 -0.5439453125 -199.665039062 l 1
 537.068359375 -199.665039062 l 1
 537.068359375 -198.577148438 l 1
 -0.5439453125 -198.577148438 l 1
-0.5439453125 -199.665039062 m 1
 0.5439453125 -199.665039062 l 1
 0.5439453125 800.336914062 l 1
 -0.5439453125 800.336914062 l 1
 -0.5439453125 -199.665039062 l 1
535.98046875 -199.665039062 m 1
 537.068359375 -199.665039062 l 1
 537.068359375 800.336914062 l 1
 535.98046875 800.336914062 l 1
 535.98046875 -199.665039062 l 1
EndSplineSet
EndChar

StartChar: h
Encoding: 104 104 33
Width: 537
Flags: HW
LayerCount: 2
Fore
SplineSet
78.0400390625 702.241210938 m 1
 156.080078125 702.241210938 l 1
 156.080078125 19.3916015625 l 1
 78.0400390625 19.3916015625 l 1
 78.0400390625 702.241210938 l 1
129.193359375 442.611328125 m 1
 180.467773438 507.088867188 237.194335938 534.455078125 319.575195312 534.455078125 c 0
 421.274414062 534.455078125 474.092773438 457.124023438 474.092773438 349.107421875 c 2
 474.092773438 19.3916015625 l 1
 396.052734375 19.3916015625 l 1
 396.052734375 349.107421875 l 2
 396.052734375 419.663085938 365.208984375 472.0234375 300.065429688 472.0234375 c 0
 239.658203125 472.0234375 197.870117188 454.1875 156.080078125 410.568359375 c 1
 129.193359375 442.611328125 l 1
-0.5439453125 19.935546875 m 1
 -0.5439453125 18.84765625 l 1
 537.068359375 18.84765625 l 1
 537.068359375 19.935546875 l 1
 -0.5439453125 19.935546875 l 1
-0.5439453125 800.336914062 m 1
 -0.5439453125 799.249023438 l 1
 537.068359375 799.249023438 l 1
 537.068359375 800.336914062 l 1
 -0.5439453125 800.336914062 l 1
-0.5439453125 -198.577148438 m 1
 -0.5439453125 -199.665039062 l 1
 537.068359375 -199.665039062 l 1
 537.068359375 -198.577148438 l 1
 -0.5439453125 -198.577148438 l 1
-0.5439453125 -199.665039062 m 1
 0.5439453125 -199.665039062 l 1
 0.5439453125 800.336914062 l 1
 -0.5439453125 800.336914062 l 1
 -0.5439453125 -199.665039062 l 1
535.98046875 -199.665039062 m 1
 537.068359375 -199.665039062 l 1
 537.068359375 800.336914062 l 1
 535.98046875 800.336914062 l 1
 535.98046875 -199.665039062 l 1
EndSplineSet
EndChar

StartChar: i
Encoding: 105 105 34
Width: 293
Flags: HW
LayerCount: 2
Fore
SplineSet
54.6279296875 464.219726562 m 1
 54.6279296875 526.651367188 l 1
 175.591796875 526.651367188 l 1
 175.591796875 464.219726562 l 1
 54.6279296875 464.219726562 l 1
136.571289062 526.651367188 m 1
 214.612304688 526.651367188 l 1
 214.612304688 19.3916015625 l 1
 136.571289062 19.3916015625 l 1
 136.571289062 526.651367188 l 1
224.3671875 672.9765625 m 0
 224.3671875 660.040039062 219.227539062 647.634765625 210.080078125 638.48828125 c 0
 200.93359375 629.340820312 188.528320312 624.201171875 175.591796875 624.201171875 c 0
 162.655273438 624.201171875 150.25 629.340820312 141.103515625 638.48828125 c 0
 131.956054688 647.634765625 126.81640625 660.040039062 126.81640625 672.9765625 c 0
 126.81640625 685.913085938 131.956054688 698.318359375 141.103515625 707.46484375 c 0
 150.25 716.611328125 162.655273438 721.751953125 175.591796875 721.751953125 c 0
 188.528320312 721.751953125 200.93359375 716.611328125 210.080078125 707.46484375 c 0
 219.227539062 698.318359375 224.3671875 685.913085938 224.3671875 672.9765625 c 0
-0.5439453125 19.935546875 m 1
 -0.5439453125 18.84765625 l 1
 293.192382812 18.84765625 l 1
 293.192382812 19.935546875 l 1
 -0.5439453125 19.935546875 l 1
-0.5439453125 800.336914062 m 1
 -0.5439453125 799.249023438 l 1
 293.192382812 799.249023438 l 1
 293.192382812 800.336914062 l 1
 -0.5439453125 800.336914062 l 1
-0.5439453125 -198.577148438 m 1
 -0.5439453125 -199.665039062 l 1
 293.192382812 -199.665039062 l 1
 293.192382812 -198.577148438 l 1
 -0.5439453125 -198.577148438 l 1
-0.5439453125 -199.665039062 m 1
 0.5439453125 -199.665039062 l 1
 0.5439453125 800.336914062 l 1
 -0.5439453125 800.336914062 l 1
 -0.5439453125 -199.665039062 l 1
292.104492188 -199.665039062 m 1
 293.192382812 -199.665039062 l 1
 293.192382812 800.336914062 l 1
 292.104492188 800.336914062 l 1
 292.104492188 -199.665039062 l 1
EndSplineSet
EndChar

StartChar: j
Encoding: 106 106 35
Width: 275
Flags: HW
LayerCount: 2
Fore
SplineSet
103.551757812 526.651367188 m 1
 181.591796875 526.651367188 l 1
 181.591796875 -0.1181640625 l 2
 181.591796875 -92.4267578125 157.717773438 -167.904296875 76.7255859375 -167.904296875 c 2
 10.8798828125 -167.904296875 l 1
 10.8798828125 -105.471679688 l 1
 76.7255859375 -105.471679688 l 2
 124.817382812 -105.471679688 103.551757812 -51.9931640625 103.551757812 -0.1181640625 c 2
 103.551757812 526.651367188 l 1
191.346679688 672.9765625 m 0
 191.346679688 660.040039062 186.20703125 647.634765625 177.060546875 638.48828125 c 0
 167.9140625 629.340820312 155.508789062 624.201171875 142.572265625 624.201171875 c 0
 129.635742188 624.201171875 117.23046875 629.340820312 108.083007812 638.48828125 c 0
 98.9365234375 647.634765625 93.796875 660.040039062 93.796875 672.9765625 c 0
 93.796875 685.913085938 98.9365234375 698.318359375 108.083007812 707.46484375 c 0
 117.23046875 716.611328125 129.635742188 721.751953125 142.572265625 721.751953125 c 0
 155.508789062 721.751953125 167.9140625 716.611328125 177.060546875 707.46484375 c 0
 186.20703125 698.318359375 191.346679688 685.913085938 191.346679688 672.9765625 c 0
10.3359375 19.935546875 m 1
 10.3359375 18.84765625 l 1
 274.806640625 18.84765625 l 1
 274.806640625 19.935546875 l 1
 10.3359375 19.935546875 l 1
10.3359375 800.336914062 m 1
 10.3359375 799.249023438 l 1
 274.806640625 799.249023438 l 1
 274.806640625 800.336914062 l 1
 10.3359375 800.336914062 l 1
10.3359375 -198.577148438 m 1
 10.3359375 -199.665039062 l 1
 274.806640625 -199.665039062 l 1
 274.806640625 -198.577148438 l 1
 10.3359375 -198.577148438 l 1
10.3359375 -199.665039062 m 1
 11.423828125 -199.665039062 l 1
 11.423828125 800.336914062 l 1
 10.3359375 800.336914062 l 1
 10.3359375 -199.665039062 l 1
273.71875 -199.665039062 m 1
 274.806640625 -199.665039062 l 1
 274.806640625 800.336914062 l 1
 273.71875 800.336914062 l 1
 273.71875 -199.665039062 l 1
EndSplineSet
EndChar

StartChar: k
Encoding: 107 107 36
Width: 498
Flags: HW
LayerCount: 2
Fore
SplineSet
78.0400390625 702.241210938 m 1
 156.080078125 702.241210938 l 1
 156.080078125 19.3916015625 l 1
 78.0400390625 19.3916015625 l 1
 78.0400390625 702.241210938 l 1
380.4453125 526.651367188 m 1
 458.485351562 526.651367188 l 1
 234.12109375 273.021484375 l 1
 458.485351562 19.3916015625 l 1
 380.4453125 19.3916015625 l 1
 156.080078125 273.021484375 l 1
 380.4453125 526.651367188 l 1
-0.5439453125 19.935546875 m 1
 -0.5439453125 18.84765625 l 1
 498.049804688 18.84765625 l 1
 498.049804688 19.935546875 l 1
 -0.5439453125 19.935546875 l 1
-0.5439453125 800.336914062 m 1
 -0.5439453125 799.249023438 l 1
 498.049804688 799.249023438 l 1
 498.049804688 800.336914062 l 1
 -0.5439453125 800.336914062 l 1
-0.5439453125 -198.577148438 m 1
 -0.5439453125 -199.665039062 l 1
 498.049804688 -199.665039062 l 1
 498.049804688 -198.577148438 l 1
 -0.5439453125 -198.577148438 l 1
-0.5439453125 -199.665039062 m 1
 0.5439453125 -199.665039062 l 1
 0.5439453125 800.336914062 l 1
 -0.5439453125 800.336914062 l 1
 -0.5439453125 -199.665039062 l 1
496.961914062 -199.665039062 m 1
 498.049804688 -199.665039062 l 1
 498.049804688 800.336914062 l 1
 496.961914062 800.336914062 l 1
 496.961914062 -199.665039062 l 1
EndSplineSet
EndChar

StartChar: l
Encoding: 108 108 37
Width: 254
Flags: HW
LayerCount: 2
Fore
SplineSet
87.794921875 710.045898438 m 1
 165.834960938 710.045898438 l 1
 165.834960938 120.841796875 l 2
 165.834960938 97.2822265625 179.752929688 81.82421875 202.905273438 81.82421875 c 2
 240.948242188 81.82421875 l 1
 240.948242188 19.3916015625 l 1
 202.905273438 19.3916015625 l 2
 134.864257812 19.3916015625 87.794921875 55.6337890625 87.794921875 120.841796875 c 2
 87.794921875 710.045898438 l 1
126.815429688 710.045898438 m 1
 126.815429688 120.841796875 l 2
 126.815429688 80.9423828125 161.905273438 50.607421875 202.905273438 50.607421875 c 1
 202.905273438 50.607421875 l 1
 161.905273438 50.607421875 126.815429688 80.9423828125 126.815429688 120.841796875 c 2
 126.815429688 710.045898438 l 1
-0.5439453125 19.935546875 m 1
 -0.5439453125 18.84765625 l 1
 254.173828125 18.84765625 l 1
 254.173828125 19.935546875 l 1
 -0.5439453125 19.935546875 l 1
-0.5439453125 800.336914062 m 1
 -0.5439453125 799.249023438 l 1
 254.173828125 799.249023438 l 1
 254.173828125 800.336914062 l 1
 -0.5439453125 800.336914062 l 1
-0.5439453125 -198.577148438 m 1
 -0.5439453125 -199.665039062 l 1
 254.173828125 -199.665039062 l 1
 254.173828125 -198.577148438 l 1
 -0.5439453125 -198.577148438 l 1
-0.5439453125 -199.665039062 m 1
 0.5439453125 -199.665039062 l 1
 0.5439453125 800.336914062 l 1
 -0.5439453125 800.336914062 l 1
 -0.5439453125 -199.665039062 l 1
253.0859375 -199.665039062 m 1
 254.173828125 -199.665039062 l 1
 254.173828125 800.336914062 l 1
 253.0859375 800.336914062 l 1
 253.0859375 -199.665039062 l 1
EndSplineSet
EndChar

StartChar: m
Encoding: 109 109 38
Width: 800
Flags: HW
LayerCount: 2
Fore
SplineSet
78.0400390625 526.651367188 m 1
 156.080078125 526.651367188 l 1
 156.080078125 19.3916015625 l 1
 78.0400390625 19.3916015625 l 1
 78.0400390625 526.651367188 l 1
129.193359375 442.611328125 m 1
 175.052734375 481.092773438 238.572265625 534.455078125 298.50390625 534.455078125 c 0
 359.373046875 534.455078125 399.34765625 502.131835938 412.086914062 442.611328125 c 1
 445.625 494.168945312 519.891601562 534.455078125 581.3984375 534.455078125 c 0
 678.184570312 534.455078125 721.869140625 454.814453125 721.869140625 349.107421875 c 2
 721.869140625 19.3916015625 l 1
 643.829101562 19.3916015625 l 1
 643.829101562 349.107421875 l 2
 643.829101562 417.486328125 622.602539062 472.0234375 561.888671875 472.0234375 c 0
 514.512695312 472.0234375 475.275390625 441.028320312 438.974609375 410.568359375 c 1
 438.974609375 349.107421875 l 1
 438.974609375 19.3916015625 l 1
 360.934570312 19.3916015625 l 1
 360.934570312 349.107421875 l 2
 360.934570312 417.486328125 339.708007812 472.0234375 278.994140625 472.0234375 c 0
 226.353515625 472.0234375 196.415039062 444.413085938 156.080078125 410.568359375 c 1
 129.193359375 442.611328125 l 1
-0.5439453125 19.935546875 m 1
 -0.5439453125 18.84765625 l 1
 800.454101562 18.84765625 l 1
 800.454101562 19.935546875 l 1
 -0.5439453125 19.935546875 l 1
-0.5439453125 800.336914062 m 1
 -0.5439453125 799.249023438 l 1
 800.454101562 799.249023438 l 1
 800.454101562 800.336914062 l 1
 -0.5439453125 800.336914062 l 1
-0.5439453125 -198.577148438 m 1
 -0.5439453125 -199.665039062 l 1
 800.454101562 -199.665039062 l 1
 800.454101562 -198.577148438 l 1
 -0.5439453125 -198.577148438 l 1
-0.5439453125 -199.665039062 m 1
 0.5439453125 -199.665039062 l 1
 0.5439453125 800.336914062 l 1
 -0.5439453125 800.336914062 l 1
 -0.5439453125 -199.665039062 l 1
799.366210938 -199.665039062 m 1
 800.454101562 -199.665039062 l 1
 800.454101562 800.336914062 l 1
 799.366210938 800.336914062 l 1
 799.366210938 -199.665039062 l 1
EndSplineSet
EndChar

StartChar: n
Encoding: 110 110 39
Width: 527
Flags: HW
LayerCount: 2
Fore
SplineSet
78.0400390625 526.651367188 m 1
 156.080078125 526.651367188 l 1
 156.080078125 19.3916015625 l 1
 78.0400390625 19.3916015625 l 1
 78.0400390625 526.651367188 l 1
129.193359375 442.611328125 m 1
 178.192382812 483.7265625 249.774414062 534.455078125 313.721679688 534.455078125 c 0
 414.012695312 534.455078125 464.336914062 456.465820312 464.336914062 349.107421875 c 2
 464.336914062 19.3916015625 l 1
 386.296875 19.3916015625 l 1
 386.296875 349.107421875 l 2
 386.296875 419.0390625 358.04296875 472.0234375 294.211914062 472.0234375 c 0
 236.430664062 472.0234375 200.376953125 447.73828125 156.080078125 410.568359375 c 1
 129.193359375 442.611328125 l 1
-0.5439453125 19.935546875 m 1
 -0.5439453125 18.84765625 l 1
 527.3125 18.84765625 l 1
 527.3125 19.935546875 l 1
 -0.5439453125 19.935546875 l 1
-0.5439453125 800.336914062 m 1
 -0.5439453125 799.249023438 l 1
 527.3125 799.249023438 l 1
 527.3125 800.336914062 l 1
 -0.5439453125 800.336914062 l 1
-0.5439453125 -198.577148438 m 1
 -0.5439453125 -199.665039062 l 1
 527.3125 -199.665039062 l 1
 527.3125 -198.577148438 l 1
 -0.5439453125 -198.577148438 l 1
-0.5439453125 -199.665039062 m 1
 0.5439453125 -199.665039062 l 1
 0.5439453125 800.336914062 l 1
 -0.5439453125 800.336914062 l 1
 -0.5439453125 -199.665039062 l 1
526.224609375 -199.665039062 m 1
 527.3125 -199.665039062 l 1
 527.3125 800.336914062 l 1
 526.224609375 800.336914062 l 1
 526.224609375 -199.665039062 l 1
EndSplineSet
EndChar

StartChar: o
Encoding: 111 111 40
Width: 561
Flags: HW
LayerCount: 2
Fore
SplineSet
280.456054688 534.455078125 m 1
 425.91015625 534.455078125 506.284179688 428.9453125 506.284179688 276.923828125 c 0
 506.284179688 121.497070312 427.748046875 11.587890625 280.456054688 11.587890625 c 0
 133.165039062 11.587890625 54.6279296875 121.497070312 54.6279296875 276.923828125 c 0
 54.6279296875 428.9453125 135.001953125 534.455078125 280.456054688 534.455078125 c 1
 280.456054688 472.0234375 l 1
 178.6015625 472.0234375 132.66796875 388.180664062 132.66796875 276.923828125 c 0
 132.66796875 162.14453125 176.455078125 74.01953125 280.456054688 74.01953125 c 0
 384.458007812 74.01953125 428.244140625 162.14453125 428.244140625 276.923828125 c 0
 428.244140625 388.180664062 382.310546875 472.0234375 280.456054688 472.0234375 c 1
 280.456054688 534.455078125 l 1
-0.5439453125 19.935546875 m 1
 -0.5439453125 18.84765625 l 1
 561.45703125 18.84765625 l 1
 561.45703125 19.935546875 l 1
 -0.5439453125 19.935546875 l 1
-0.5439453125 800.336914062 m 1
 -0.5439453125 799.249023438 l 1
 561.45703125 799.249023438 l 1
 561.45703125 800.336914062 l 1
 -0.5439453125 800.336914062 l 1
-0.5439453125 -198.577148438 m 1
 -0.5439453125 -199.665039062 l 1
 561.45703125 -199.665039062 l 1
 561.45703125 -198.577148438 l 1
 -0.5439453125 -198.577148438 l 1
-0.5439453125 -199.665039062 m 1
 0.5439453125 -199.665039062 l 1
 0.5439453125 800.336914062 l 1
 -0.5439453125 800.336914062 l 1
 -0.5439453125 -199.665039062 l 1
560.369140625 -199.665039062 m 1
 561.45703125 -199.665039062 l 1
 561.45703125 800.336914062 l 1
 560.369140625 800.336914062 l 1
 560.369140625 -199.665039062 l 1
EndSplineSet
EndChar

StartChar: r
Encoding: 114 114 41
Width: 352
Flags: HW
LayerCount: 2
Fore
SplineSet
78.0400390625 526.651367188 m 1
 156.080078125 526.651367188 l 1
 156.080078125 19.3916015625 l 1
 78.0400390625 19.3916015625 l 1
 78.0400390625 526.651367188 l 1
129.193359375 442.611328125 m 1
 194.865234375 497.716796875 247.956054688 534.455078125 333.620117188 534.455078125 c 1
 333.620117188 472.0234375 l 1
 261.859375 472.0234375 211.038085938 456.68359375 156.080078125 410.568359375 c 1
 129.193359375 442.611328125 l 1
-0.5439453125 19.935546875 m 1
 -0.5439453125 18.84765625 l 1
 351.725585938 18.84765625 l 1
 351.725585938 19.935546875 l 1
 -0.5439453125 19.935546875 l 1
-0.5439453125 800.336914062 m 1
 -0.5439453125 799.249023438 l 1
 351.725585938 799.249023438 l 1
 351.725585938 800.336914062 l 1
 -0.5439453125 800.336914062 l 1
-0.5439453125 -198.577148438 m 1
 -0.5439453125 -199.665039062 l 1
 351.725585938 -199.665039062 l 1
 351.725585938 -198.577148438 l 1
 -0.5439453125 -198.577148438 l 1
-0.5439453125 -199.665039062 m 1
 0.5439453125 -199.665039062 l 1
 0.5439453125 800.336914062 l 1
 -0.5439453125 800.336914062 l 1
 -0.5439453125 -199.665039062 l 1
350.637695312 -199.665039062 m 1
 351.725585938 -199.665039062 l 1
 351.725585938 800.336914062 l 1
 350.637695312 800.336914062 l 1
 350.637695312 -199.665039062 l 1
EndSplineSet
EndChar

StartChar: s
Encoding: 115 115 42
Width: 459
Flags: HW
LayerCount: 2
Fore
SplineSet
233.82421875 534.455078125 m 0
 309.799804688 534.455078125 354.401367188 497.084960938 412.6328125 448.22265625 c 1
 372.502929688 400.397460938 l 1
 326.665039062 438.860351562 293.671875 472.0234375 233.82421875 472.0234375 c 0
 175.612304688 472.0234375 132.66796875 446.048828125 132.66796875 392.124023438 c 0
 132.66796875 345.806640625 165.82421875 322.317382812 213.307617188 312.224609375 c 2
 258.157226562 302.69140625 l 2
 346.2890625 283.958007812 403.856445312 235.3125 403.856445312 148.158203125 c 0
 403.856445312 54.3291015625 326.979492188 11.587890625 224.66015625 11.587890625 c 0
 154.412109375 11.587890625 108.47265625 36.5302734375 54.6279296875 81.712890625 c 1
 94.7587890625 129.538085938 l 1
 136.129882812 94.822265625 170.69140625 74.01953125 224.66015625 74.01953125 c 0
 281.954101562 74.01953125 325.81640625 96.162109375 325.81640625 148.158203125 c 0
 325.81640625 199.259765625 295.869140625 230.84765625 245.176757812 241.623046875 c 2
 200.327148438 251.15625 l 2
 115.295898438 269.23046875 54.6279296875 309.55078125 54.6279296875 392.124023438 c 0
 54.6279296875 487.92578125 130.573242188 534.455078125 233.82421875 534.455078125 c 0
-0.5439453125 19.935546875 m 1
 -0.5439453125 18.84765625 l 1
 459.028320312 18.84765625 l 1
 459.028320312 19.935546875 l 1
 -0.5439453125 19.935546875 l 1
-0.5439453125 800.336914062 m 1
 -0.5439453125 799.249023438 l 1
 459.028320312 799.249023438 l 1
 459.028320312 800.336914062 l 1
 -0.5439453125 800.336914062 l 1
-0.5439453125 -198.577148438 m 1
 -0.5439453125 -199.665039062 l 1
 459.028320312 -199.665039062 l 1
 459.028320312 -198.577148438 l 1
 -0.5439453125 -198.577148438 l 1
-0.5439453125 -199.665039062 m 1
 0.5439453125 -199.665039062 l 1
 0.5439453125 800.336914062 l 1
 -0.5439453125 800.336914062 l 1
 -0.5439453125 -199.665039062 l 1
457.940429688 -199.665039062 m 1
 459.028320312 -199.665039062 l 1
 459.028320312 800.336914062 l 1
 457.940429688 800.336914062 l 1
 457.940429688 -199.665039062 l 1
EndSplineSet
EndChar

StartChar: t
Encoding: 116 116 43
Width: 410
Flags: HW
LayerCount: 2
Fore
SplineSet
54.6279296875 464.219726562 m 1
 54.6279296875 526.651367188 l 1
 355.08203125 526.651367188 l 1
 355.08203125 464.219726562 l 1
 54.6279296875 464.219726562 l 1
149.44921875 651.512695312 m 1
 227.489257812 702.241210938 l 1
 227.489257812 114.990234375 l 2
 227.489257812 86.06640625 252.099609375 74.01953125 284.067382812 74.01953125 c 2
 355.08203125 74.01953125 l 1
 355.08203125 24.07421875 l 1
 329.787109375 14.8955078125 310.9765625 11.587890625 284.067382812 11.587890625 c 0
 207.072265625 11.587890625 149.44921875 44.2314453125 149.44921875 114.990234375 c 2
 149.44921875 651.512695312 l 1
-0.5439453125 19.935546875 m 1
 -0.5439453125 18.84765625 l 1
 410.25390625 18.84765625 l 1
 410.25390625 19.935546875 l 1
 -0.5439453125 19.935546875 l 1
-0.5439453125 800.336914062 m 1
 -0.5439453125 799.249023438 l 1
 410.25390625 799.249023438 l 1
 410.25390625 800.336914062 l 1
 -0.5439453125 800.336914062 l 1
-0.5439453125 -198.577148438 m 1
 -0.5439453125 -199.665039062 l 1
 410.25390625 -199.665039062 l 1
 410.25390625 -198.577148438 l 1
 -0.5439453125 -198.577148438 l 1
-0.5439453125 -199.665039062 m 1
 0.5439453125 -199.665039062 l 1
 0.5439453125 800.336914062 l 1
 -0.5439453125 800.336914062 l 1
 -0.5439453125 -199.665039062 l 1
409.166015625 -199.665039062 m 1
 410.25390625 -199.665039062 l 1
 410.25390625 800.336914062 l 1
 409.166015625 800.336914062 l 1
 409.166015625 -199.665039062 l 1
EndSplineSet
EndChar

StartChar: u
Encoding: 117 117 44
Width: 527
Flags: HW
LayerCount: 2
Fore
SplineSet
370.688476562 526.651367188 m 1
 448.728515625 526.651367188 l 1
 448.728515625 19.3916015625 l 1
 370.688476562 19.3916015625 l 1
 370.688476562 526.651367188 l 1
62.431640625 526.651367188 m 1
 140.471679688 526.651367188 l 1
 140.471679688 196.935546875 l 2
 140.471679688 127.00390625 168.7265625 74.01953125 232.557617188 74.01953125 c 0
 288.403320312 74.01953125 352.01171875 118.94140625 370.688476562 171.571289062 c 1
 397.576171875 139.528320312 l 1
 371.641601562 70.2734375 287 11.587890625 213.047851562 11.587890625 c 0
 112.756835938 11.587890625 62.431640625 89.5771484375 62.431640625 196.935546875 c 2
 62.431640625 526.651367188 l 1
62.431640625 526.651367188 m 1
 140.471679688 526.651367188 l 1
 140.471679688 196.935546875 l 2
 140.471679688 127.00390625 168.7265625 74.01953125 232.557617188 74.01953125 c 0
 301.50390625 74.01953125 347.629882812 106.595703125 370.688476562 171.571289062 c 1
 397.576171875 139.528320312 l 1
 376.051757812 55.857421875 318.952148438 11.587890625 232.557617188 11.587890625 c 0
 124.94140625 11.587890625 62.431640625 86.14453125 62.431640625 196.935546875 c 2
 62.431640625 526.651367188 l 1
-0.5439453125 19.935546875 m 1
 -0.5439453125 18.84765625 l 1
 527.3125 18.84765625 l 1
 527.3125 19.935546875 l 1
 -0.5439453125 19.935546875 l 1
-0.5439453125 800.336914062 m 1
 -0.5439453125 799.249023438 l 1
 527.3125 799.249023438 l 1
 527.3125 800.336914062 l 1
 -0.5439453125 800.336914062 l 1
-0.5439453125 -198.577148438 m 1
 -0.5439453125 -199.665039062 l 1
 527.3125 -199.665039062 l 1
 527.3125 -198.577148438 l 1
 -0.5439453125 -198.577148438 l 1
-0.5439453125 -199.665039062 m 1
 0.5439453125 -199.665039062 l 1
 0.5439453125 800.336914062 l 1
 -0.5439453125 800.336914062 l 1
 -0.5439453125 -199.665039062 l 1
526.224609375 -199.665039062 m 1
 527.3125 -199.665039062 l 1
 527.3125 800.336914062 l 1
 526.224609375 800.336914062 l 1
 526.224609375 -199.665039062 l 1
EndSplineSet
EndChar

StartChar: v
Encoding: 118 118 45
Width: 542
Flags: HW
LayerCount: 2
Fore
SplineSet
35.1181640625 526.651367188 m 1
 113.158203125 526.651367188 l 1
 309.721679688 19.3916015625 l 1
 231.680664062 19.3916015625 l 1
 35.1181640625 526.651367188 l 1
231.680664062 19.3916015625 m 1
 428.244140625 526.651367188 l 1
 506.284179688 526.651367188 l 1
 309.721679688 19.3916015625 l 1
 231.680664062 19.3916015625 l 1
-0.5439453125 19.935546875 m 1
 -0.5439453125 18.84765625 l 1
 541.9453125 18.84765625 l 1
 541.9453125 19.935546875 l 1
 -0.5439453125 19.935546875 l 1
-0.5439453125 800.336914062 m 1
 -0.5439453125 799.249023438 l 1
 541.9453125 799.249023438 l 1
 541.9453125 800.336914062 l 1
 -0.5439453125 800.336914062 l 1
-0.5439453125 -198.577148438 m 1
 -0.5439453125 -199.665039062 l 1
 541.9453125 -199.665039062 l 1
 541.9453125 -198.577148438 l 1
 -0.5439453125 -198.577148438 l 1
-0.5439453125 -199.665039062 m 1
 0.5439453125 -199.665039062 l 1
 0.5439453125 800.336914062 l 1
 -0.5439453125 800.336914062 l 1
 -0.5439453125 -199.665039062 l 1
540.857421875 -199.665039062 m 1
 541.9453125 -199.665039062 l 1
 541.9453125 800.336914062 l 1
 540.857421875 800.336914062 l 1
 540.857421875 -199.665039062 l 1
EndSplineSet
EndChar

StartChar: w
Encoding: 119 119 46
Width: 732
Flags: HW
LayerCount: 2
Fore
SplineSet
39.0205078125 526.651367188 m 1
 117.060546875 526.651367188 l 1
 221.926757812 19.3916015625 l 1
 143.885742188 19.3916015625 l 1
 39.0205078125 526.651367188 l 1
143.885742188 19.3916015625 m 1
 326.791992188 526.651367188 l 1
 404.83203125 526.651367188 l 1
 221.926757812 19.3916015625 l 1
 143.885742188 19.3916015625 l 1
326.791992188 526.651367188 m 1
 404.83203125 526.651367188 l 1
 568.228515625 19.3916015625 l 1
 490.188476562 19.3916015625 l 1
 326.791992188 526.651367188 l 1
614.564453125 526.651367188 m 1
 692.604492188 526.651367188 l 1
 568.228515625 19.3916015625 l 1
 490.188476562 19.3916015625 l 1
 614.564453125 526.651367188 l 1
-0.5439453125 19.935546875 m 1
 -0.5439453125 18.84765625 l 1
 732.169921875 18.84765625 l 1
 732.169921875 19.935546875 l 1
 -0.5439453125 19.935546875 l 1
-0.5439453125 800.336914062 m 1
 -0.5439453125 799.249023438 l 1
 732.169921875 799.249023438 l 1
 732.169921875 800.336914062 l 1
 -0.5439453125 800.336914062 l 1
-0.5439453125 -198.577148438 m 1
 -0.5439453125 -199.665039062 l 1
 732.169921875 -199.665039062 l 1
 732.169921875 -198.577148438 l 1
 -0.5439453125 -198.577148438 l 1
-0.5439453125 -199.665039062 m 1
 0.5439453125 -199.665039062 l 1
 0.5439453125 800.336914062 l 1
 -0.5439453125 800.336914062 l 1
 -0.5439453125 -199.665039062 l 1
731.08203125 -199.665039062 m 1
 732.169921875 -199.665039062 l 1
 732.169921875 800.336914062 l 1
 731.08203125 800.336914062 l 1
 731.08203125 -199.665039062 l 1
EndSplineSet
EndChar

StartChar: x
Encoding: 120 120 47
Width: 503
Flags: HW
LayerCount: 2
Fore
SplineSet
35.1181640625 526.651367188 m 1
 113.158203125 526.651367188 l 1
 467.263671875 19.3916015625 l 1
 389.223632812 19.3916015625 l 1
 35.1181640625 526.651367188 l 1
389.223632812 526.651367188 m 1
 467.263671875 526.651367188 l 1
 113.158203125 19.3916015625 l 1
 35.1181640625 19.3916015625 l 1
 389.223632812 526.651367188 l 1
-0.5439453125 19.935546875 m 1
 -0.5439453125 18.84765625 l 1
 502.926757812 18.84765625 l 1
 502.926757812 19.935546875 l 1
 -0.5439453125 19.935546875 l 1
-0.5439453125 800.336914062 m 1
 -0.5439453125 799.249023438 l 1
 502.926757812 799.249023438 l 1
 502.926757812 800.336914062 l 1
 -0.5439453125 800.336914062 l 1
-0.5439453125 -198.577148438 m 1
 -0.5439453125 -199.665039062 l 1
 502.926757812 -199.665039062 l 1
 502.926757812 -198.577148438 l 1
 -0.5439453125 -198.577148438 l 1
-0.5439453125 -199.665039062 m 1
 0.5439453125 -199.665039062 l 1
 0.5439453125 800.336914062 l 1
 -0.5439453125 800.336914062 l 1
 -0.5439453125 -199.665039062 l 1
501.838867188 -199.665039062 m 1
 502.926757812 -199.665039062 l 1
 502.926757812 800.336914062 l 1
 501.838867188 800.336914062 l 1
 501.838867188 -199.665039062 l 1
EndSplineSet
EndChar
